<?xml version="1.0" encoding="UTF-8" standalone="no"?>
<svg xmlns="http://www.w3.org/2000/svg" width="1600" height="1000" viewBox="0 0 1600 1000" style="background:#0b1220">
<defs>
            <radialGradient id="nodeGlow" cx="50%" cy="50%" r="60%">
                <stop offset="0%" stop-color="#ffffff" stop-opacity="0.15"/>
                <stop offset="100%" stop-color="#00ddeb" stop-opacity="0.08"/>
            </radialGradient>
            <filter id="softGlow" x="-50%" y="-50%" width="200%" height="200%">
                <feGaussianBlur stdDeviation="6" result="blur"/>
                <feMerge><feMergeNode in="blur"/><feMergeNode in="SourceGraphic"/></feMerge>
            </filter>
            <marker id="arrow" markerUnits="userSpaceOnUse" markerWidth="14" markerHeight="8" refX="12" refY="4" orient="auto">
                <path d="M0,0 L12,4 L0,8 Z" fill="#9aa4b2" />
            </marker>
            <marker id="arrowBright" markerUnits="userSpaceOnUse" markerWidth="16" markerHeight="10" refX="14" refY="5" orient="auto">
                <path d="M0,0 L14,5 L0,10 Z" fill="#00e0ff" />
            </marker>
            <style>
                .label { font-family: Inter, system-ui, -apple-system, Segoe UI, Roboto; fill:#c8cfdb; }
            </style>
        </defs>
<g class="group" id="group-parent"><rect x="10.0" y="340.0" width="220.0" height="320.0" rx="18" ry="18" fill="#0e172a" stroke="#2a3450" stroke-width="1.5" stroke-dasharray="6 6"/><text class="label" x="120.0" y="324.0" text-anchor="middle" font-size="15" opacity="0.9">Tojásfarmok / szülőpárok</text></g>
<g class="group" id="group-setter"><rect x="250.0" y="200.0" width="220.0" height="600.0" rx="18" ry="18" fill="#0e172a" stroke="#2a3450" stroke-width="1.5" stroke-dasharray="6 6"/><text class="label" x="360.0" y="184.0" text-anchor="middle" font-size="15" opacity="0.9">Előkeltetők</text></g>
<g class="group" id="group-hatcher"><rect x="570.0" y="200.0" width="220.0" height="600.0" rx="18" ry="18" fill="#0e172a" stroke="#2a3450" stroke-width="1.5" stroke-dasharray="6 6"/><text class="label" x="680.0" y="184.0" text-anchor="middle" font-size="15" opacity="0.9">Utókeltetők</text></g>
<g class="group" id="group-truck"><rect x="890.0" y="340.0" width="220.0" height="320.0" rx="18" ry="18" fill="#0e172a" stroke="#2a3450" stroke-width="1.5" stroke-dasharray="6 6"/><text class="label" x="1000.0" y="324.0" text-anchor="middle" font-size="15" opacity="0.9">Szállítás</text></g>
<g class="group" id="group-barn"><rect x="1170.0" y="410.0" width="220.0" height="180.0" rx="18" ry="18" fill="#0e172a" stroke="#2a3450" stroke-width="1.5" stroke-dasharray="6 6"/><text class="label" x="1280.0" y="394.0" text-anchor="middle" font-size="15" opacity="0.9">Cél istálló</text></g>
<path d="M164.0,430.0 C217.2,430.0 262.8,430.0 316.0,430.0" fill="none" stroke="#3b4556" stroke-width="5.52" stroke-linecap="round" opacity="0.75" marker-end="url(#arrow)"/>
<path d="M164.0,430.0 C217.2,430.0 262.8,290.0 316.0,290.0" fill="none" stroke="#3b4556" stroke-width="7.11" stroke-linecap="round" opacity="0.75" marker-end="url(#arrow)"/>
<path d="M164.0,570.0 C217.2,570.0 262.8,570.0 316.0,570.0" fill="none" stroke="#3b4556" stroke-width="4.66" stroke-linecap="round" opacity="0.75" marker-end="url(#arrow)"/>
<path d="M164.0,570.0 C217.2,570.0 262.8,710.0 316.0,710.0" fill="none" stroke="#3b4556" stroke-width="3.20" stroke-linecap="round" opacity="0.75" marker-end="url(#arrow)"/>
<path d="M404.0,430.0 C485.2,430.0 554.8,570.0 636.0,570.0" fill="none" stroke="#4b566a" stroke-width="4.53" stroke-linecap="round" opacity="0.75" marker-end="url(#arrow)"/>
<path d="M404.0,290.0 C485.2,290.0 554.8,290.0 636.0,290.0" fill="none" stroke="#4b566a" stroke-width="5.87" stroke-linecap="round" opacity="0.75" marker-end="url(#arrow)"/>
<path d="M404.0,570.0 C485.2,570.0 554.8,430.0 636.0,430.0" fill="none" stroke="#4b566a" stroke-width="3.62" stroke-linecap="round" opacity="0.75" marker-end="url(#arrow)"/>
<path d="M404.0,570.0 C485.2,570.0 554.8,710.0 636.0,710.0" fill="none" stroke="#4b566a" stroke-width="1.52" stroke-linecap="round" opacity="0.75" marker-end="url(#arrow)"/>
<path d="M404.0,710.0 C485.2,710.0 554.8,430.0 636.0,430.0" fill="none" stroke="#4b566a" stroke-width="2.79" stroke-linecap="round" opacity="0.75" marker-end="url(#arrow)"/>
<path d="M724.0,570.0 C805.2,570.0 874.8,430.0 956.0,430.0" fill="none" stroke="#55617a" stroke-width="4.53" stroke-linecap="round" opacity="0.85" marker-end="url(#arrow)"/>
<path d="M724.0,290.0 C805.2,290.0 874.8,430.0 956.0,430.0" fill="none" stroke="#55617a" stroke-width="5.87" stroke-linecap="round" opacity="0.85" marker-end="url(#arrow)"/>
<path d="M724.0,430.0 C805.2,430.0 874.8,570.0 956.0,570.0" fill="none" stroke="#55617a" stroke-width="5.22" stroke-linecap="round" opacity="0.85" marker-end="url(#arrow)"/>
<path d="M724.0,710.0 C805.2,710.0 874.8,570.0 956.0,570.0" fill="none" stroke="#55617a" stroke-width="1.52" stroke-linecap="round" opacity="0.85" marker-end="url(#arrow)"/>
<path d="M1044.0,430.0 C1111.2,430.0 1168.8,500.0 1236.0,500.0" fill="none" stroke="#5f6d85" stroke-width="9.20" stroke-linecap="round" opacity="0.85" marker-end="url(#arrow)"/>
<path d="M1044.0,570.0 C1111.2,570.0 1168.8,500.0 1236.0,500.0" fill="none" stroke="#5f6d85" stroke-width="5.53" stroke-linecap="round" opacity="0.85" marker-end="url(#arrow)"/>
<g class="node" transform="translate(120.0,430.0)"><rect x="-24.0" y="-24.0" width="48" height="48" rx="10" ry="10" fill="url(#nodeGlow)" stroke="#8a93a6" stroke-width="1.2"/><rect x="-17.0" y="-17.0" width="34" height="34" rx="8" ry="8" fill="#0f1a2e" stroke="#2c3650" stroke-width="2"/><text class="label" x="0" y="40.0" text-anchor="middle" font-size="14" fill="#e6f0ff">Szülőpár 09</text><text class="label" x="0" y="56.0" text-anchor="middle" font-size="12" opacity="0.85">73 710 db</text></g>
<g class="node" transform="translate(120.0,570.0)"><rect x="-24.0" y="-24.0" width="48" height="48" rx="10" ry="10" fill="url(#nodeGlow)" stroke="#8a93a6" stroke-width="1.2"/><rect x="-17.0" y="-17.0" width="34" height="34" rx="8" ry="8" fill="#0f1a2e" stroke="#2c3650" stroke-width="2"/><text class="label" x="0" y="40.0" text-anchor="middle" font-size="14" fill="#e6f0ff">Szülőpár 07</text><text class="label" x="0" y="56.0" text-anchor="middle" font-size="12" opacity="0.85">39 270 db</text></g>
<g class="node" transform="translate(360.0,290.0)"><rect x="-24.0" y="-24.0" width="48" height="48" rx="10" ry="10" fill="url(#nodeGlow)" stroke="#8a93a6" stroke-width="1.2"/><rect x="-17.0" y="-17.0" width="34" height="34" rx="8" ry="8" fill="#0f1a2e" stroke="#2c3650" stroke-width="2"/><text class="label" x="0" y="40.0" text-anchor="middle" font-size="14" fill="#e6f0ff">Előkeltető 08</text><text class="label" x="0" y="56.0" text-anchor="middle" font-size="12" opacity="0.85">42 575 db</text></g>
<g class="node" transform="translate(360.0,430.0)"><rect x="-24.0" y="-24.0" width="48" height="48" rx="10" ry="10" fill="url(#nodeGlow)" stroke="#8a93a6" stroke-width="1.2"/><rect x="-17.0" y="-17.0" width="34" height="34" rx="8" ry="8" fill="#0f1a2e" stroke="#2c3650" stroke-width="2"/><text class="label" x="0" y="40.0" text-anchor="middle" font-size="14" fill="#e6f0ff">Előkeltető 07</text><text class="label" x="0" y="56.0" text-anchor="middle" font-size="12" opacity="0.85">31 135 db</text></g>
<g class="node" transform="translate(360.0,570.0)"><rect x="-24.0" y="-24.0" width="48" height="48" rx="10" ry="10" fill="url(#nodeGlow)" stroke="#8a93a6" stroke-width="1.2"/><rect x="-17.0" y="-17.0" width="34" height="34" rx="8" ry="8" fill="#0f1a2e" stroke="#2c3650" stroke-width="2"/><text class="label" x="0" y="40.0" text-anchor="middle" font-size="14" fill="#e6f0ff">Előkeltető 12</text><text class="label" x="0" y="56.0" text-anchor="middle" font-size="12" opacity="0.85">24 881 db</text></g>
<g class="node" transform="translate(360.0,710.0)"><rect x="-24.0" y="-24.0" width="48" height="48" rx="10" ry="10" fill="url(#nodeGlow)" stroke="#8a93a6" stroke-width="1.2"/><rect x="-17.0" y="-17.0" width="34" height="34" rx="8" ry="8" fill="#0f1a2e" stroke="#2c3650" stroke-width="2"/><text class="label" x="0" y="40.0" text-anchor="middle" font-size="14" fill="#e6f0ff">Előkeltető 13</text><text class="label" x="0" y="56.0" text-anchor="middle" font-size="12" opacity="0.85">14 389 db</text></g>
<g class="node" transform="translate(680.0,290.0)"><rect x="-24.0" y="-24.0" width="48" height="48" rx="10" ry="10" fill="url(#nodeGlow)" stroke="#8a93a6" stroke-width="1.2"/><rect x="-17.0" y="-17.0" width="34" height="34" rx="8" ry="8" fill="#0f1a2e" stroke="#2c3650" stroke-width="2"/><text class="label" x="0" y="40.0" text-anchor="middle" font-size="14" fill="#e6f0ff">Utókeltető 08</text><text class="label" x="0" y="56.0" text-anchor="middle" font-size="12" opacity="0.85">33 603 db</text></g>
<g class="node" transform="translate(680.0,430.0)"><rect x="-24.0" y="-24.0" width="48" height="48" rx="10" ry="10" fill="url(#nodeGlow)" stroke="#8a93a6" stroke-width="1.2"/><rect x="-17.0" y="-17.0" width="34" height="34" rx="8" ry="8" fill="#0f1a2e" stroke="#2c3650" stroke-width="2"/><text class="label" x="0" y="40.0" text-anchor="middle" font-size="14" fill="#e6f0ff">Utókeltető 12</text><text class="label" x="0" y="56.0" text-anchor="middle" font-size="12" opacity="0.85">28 920 db</text></g>
<g class="node" transform="translate(680.0,570.0)"><rect x="-24.0" y="-24.0" width="48" height="48" rx="10" ry="10" fill="url(#nodeGlow)" stroke="#8a93a6" stroke-width="1.2"/><rect x="-17.0" y="-17.0" width="34" height="34" rx="8" ry="8" fill="#0f1a2e" stroke="#2c3650" stroke-width="2"/><text class="label" x="0" y="40.0" text-anchor="middle" font-size="14" fill="#e6f0ff">Utókeltető 07</text><text class="label" x="0" y="56.0" text-anchor="middle" font-size="12" opacity="0.85">23 997 db</text></g>
<g class="node" transform="translate(680.0,710.0)"><rect x="-24.0" y="-24.0" width="48" height="48" rx="10" ry="10" fill="url(#nodeGlow)" stroke="#8a93a6" stroke-width="1.2"/><rect x="-17.0" y="-17.0" width="34" height="34" rx="8" ry="8" fill="#0f1a2e" stroke="#2c3650" stroke-width="2"/><text class="label" x="0" y="40.0" text-anchor="middle" font-size="14" fill="#e6f0ff">Utókeltető 11</text><text class="label" x="0" y="56.0" text-anchor="middle" font-size="12" opacity="0.85">2 280 db</text></g>
<g class="node" transform="translate(1000.0,430.0)"><rect x="-24.0" y="-24.0" width="48" height="48" rx="10" ry="10" fill="url(#nodeGlow)" stroke="#8a93a6" stroke-width="1.2"/><rect x="-17.0" y="-17.0" width="34" height="34" rx="8" ry="8" fill="#0f1a2e" stroke="#2c3650" stroke-width="2"/><text class="label" x="0" y="40.0" text-anchor="middle" font-size="14" fill="#e6f0ff">Kamion 01</text><text class="label" x="0" y="56.0" text-anchor="middle" font-size="12" opacity="0.85">57 600 db</text></g>
<g class="node" transform="translate(1000.0,570.0)"><rect x="-24.0" y="-24.0" width="48" height="48" rx="10" ry="10" fill="url(#nodeGlow)" stroke="#8a93a6" stroke-width="1.2"/><rect x="-17.0" y="-17.0" width="34" height="34" rx="8" ry="8" fill="#0f1a2e" stroke="#2c3650" stroke-width="2"/><text class="label" x="0" y="40.0" text-anchor="middle" font-size="14" fill="#e6f0ff">Kamion 01</text><text class="label" x="0" y="56.0" text-anchor="middle" font-size="12" opacity="0.85">31 200 db</text></g>
<g class="node" transform="translate(1280.0,500.0)"><rect x="-24.0" y="-24.0" width="48" height="48" rx="10" ry="10" fill="url(#nodeGlow)" stroke="#8a93a6" stroke-width="1.2"/><rect x="-17.0" y="-17.0" width="34" height="34" rx="8" ry="8" fill="#0f1a2e" stroke="#2c3650" stroke-width="2"/><text class="label" x="0" y="40.0" text-anchor="middle" font-size="14" fill="#e6f0ff">Kaba-barn-05</text><text class="label" x="0" y="56.0" text-anchor="middle" font-size="12" opacity="0.85">88 800 db</text></g>
<text class="label" x="80" y="72" font-size="24" fill="#f2f5ff" opacity="0.95">Kaba-barn-05 · 2025-02-27</text>
<g transform="translate(60,820)">
    <circle cx="0" cy="0" r="6" fill="#00e0ff"/>
    <text class="label" x="14" y="5" font-size="14">Kiemelt élő batch útvonala</text>
    <line x1="0" y1="30" x2="70" y2="30" stroke="#3b4556" stroke-width="3"/>
    <text class="label" x="82" y="35" font-size="14">Aggregált anyagáram</text>
    <rect x="-10" y="52" width="24" height="14" rx="3" ry="3" fill="#0e172a" stroke="#2a3450" stroke-width="1.5" stroke-dasharray="6 6"/>
    <text class="label" x="20" y="63" font-size="14">Csoport kerete</text>
</g>

<g transform="translate(1400.0,380.0)"><text class="label" x="0" y="0" font-size="15" opacity="0.85">Istálló állapotváltozásai</text><text class="label" x="0" y="24" font-size="13" opacity="0.75">2025-02-02 06:45 +57600 shipment-8 · shipment-8-truck-01</text><text class="label" x="0" y="44" font-size="13" opacity="0.75">2025-02-27 08:16 +31200 shipment-81 · shipment-81-truck-01</text></g>
</svg>