<?xml version="1.0" encoding="UTF-8" standalone="no"?>
<svg xmlns="http://www.w3.org/2000/svg" width="1700" height="1100" viewBox="0 0 1700 1100" style="background:#0b1220">
<defs>
            <radialGradient id="nodeGlow" cx="50%" cy="50%" r="60%">
                <stop offset="0%" stop-color="#ffffff" stop-opacity="0.15"/>
                <stop offset="100%" stop-color="#00ddeb" stop-opacity="0.08"/>
            </radialGradient>
            <filter id="softGlow" x="-50%" y="-50%" width="200%" height="200%">
                <feGaussianBlur stdDeviation="6" result="blur"/>
                <feMerge><feMergeNode in="blur"/><feMergeNode in="SourceGraphic"/></feMerge>
            </filter>
            <marker id="arrow" markerUnits="userSpaceOnUse" markerWidth="14" markerHeight="8" refX="12" refY="4" orient="auto">
                <path d="M0,0 L12,4 L0,8 Z" fill="#9aa4b2" />
            </marker>
            <marker id="arrowBright" markerUnits="userSpaceOnUse" markerWidth="16" markerHeight="10" refX="14" refY="5" orient="auto">
                <path d="M0,0 L14,5 L0,10 Z" fill="#00e0ff" />
            </marker>
            <style>
                .label { font-family: Inter, system-ui, -apple-system, Segoe UI, Roboto; fill:#c8cfdb; }
            </style>
        </defs>
<g class="group" id="group-parent"><rect x="30.0" y="390.0" width="220.0" height="320.0" rx="18" ry="18" fill="#0e172a" stroke="#2a3450" stroke-width="1.5" stroke-dasharray="6 6"/><text class="label" x="140.0" y="374.0" text-anchor="middle" font-size="15" opacity="0.9">Tojásfarmok / szülőpárok</text></g>
<g class="group" id="group-setter"><rect x="306.0" y="320.0" width="220.0" height="460.0" rx="18" ry="18" fill="#0e172a" stroke="#2a3450" stroke-width="1.5" stroke-dasharray="6 6"/><text class="label" x="416.0" y="304.0" text-anchor="middle" font-size="15" opacity="0.9">Előkeltetők</text></g>
<g class="group" id="group-transfer"><rect x="582.0" y="390.0" width="220.0" height="320.0" rx="18" ry="18" fill="#0e172a" stroke="#2a3450" stroke-width="1.5" stroke-dasharray="6 6"/><text class="label" x="692.0" y="374.0" text-anchor="middle" font-size="15" opacity="0.9">Transzfer (batch-ek)</text></g>
<g class="group" id="group-hatcher"><rect x="858.0" y="320.0" width="220.0" height="460.0" rx="18" ry="18" fill="#0e172a" stroke="#2a3450" stroke-width="1.5" stroke-dasharray="6 6"/><text class="label" x="968.0" y="304.0" text-anchor="middle" font-size="15" opacity="0.9">Utókeltetők</text></g>
<g class="group" id="group-truck"><rect x="1134.0" y="320.0" width="220.0" height="460.0" rx="18" ry="18" fill="#0e172a" stroke="#2a3450" stroke-width="1.5" stroke-dasharray="6 6"/><text class="label" x="1244.0" y="304.0" text-anchor="middle" font-size="15" opacity="0.9">Szállítás</text></g>
<g class="group" id="group-barn"><rect x="1410.0" y="460.0" width="220.0" height="180.0" rx="18" ry="18" fill="#0e172a" stroke="#2a3450" stroke-width="1.5" stroke-dasharray="6 6"/><text class="label" x="1520.0" y="444.0" text-anchor="middle" font-size="15" opacity="0.9">Cél ól</text></g>
<path d="M184.0,480.0 C249.8,480.0 306.2,550.0 372.0,550.0" fill="none" stroke="#3b4556" stroke-width="4.25" stroke-linecap="round" opacity="0.75" marker-end="url(#arrow)"/>
<path d="M184.0,480.0 C249.8,480.0 306.2,410.0 372.0,410.0" fill="none" stroke="#3b4556" stroke-width="9.20" stroke-linecap="round" opacity="0.75" marker-end="url(#arrow)"/>
<path d="M184.0,620.0 C249.8,620.0 306.2,690.0 372.0,690.0" fill="none" stroke="#3b4556" stroke-width="1.31" stroke-linecap="round" opacity="0.75" marker-end="url(#arrow)"/>
<path d="M460.0,550.0 C525.8,550.0 582.2,480.0 648.0,480.0" fill="none" stroke="#465065" stroke-width="3.73" stroke-linecap="round" opacity="0.75" marker-end="url(#arrow)"/>
<path d="M460.0,410.0 C525.8,410.0 582.2,480.0 648.0,480.0" fill="none" stroke="#465065" stroke-width="7.59" stroke-linecap="round" opacity="0.75" marker-end="url(#arrow)"/>
<path d="M460.0,690.0 C525.8,690.0 582.2,620.0 648.0,620.0" fill="none" stroke="#465065" stroke-width="1.28" stroke-linecap="round" opacity="0.75" marker-end="url(#arrow)"/>
<path d="M736.0,480.0 C801.8,480.0 858.2,550.0 924.0,550.0" fill="none" stroke="#4b566a" stroke-width="3.73" stroke-linecap="round" opacity="0.75" marker-end="url(#arrow)"/>
<path d="M736.0,480.0 C801.8,480.0 858.2,410.0 924.0,410.0" fill="none" stroke="#4b566a" stroke-width="7.59" stroke-linecap="round" opacity="0.75" marker-end="url(#arrow)"/>
<path d="M736.0,620.0 C801.8,620.0 858.2,690.0 924.0,690.0" fill="none" stroke="#4b566a" stroke-width="1.28" stroke-linecap="round" opacity="0.75" marker-end="url(#arrow)"/>
<path d="M1012.0,550.0 C1077.8,550.0 1134.2,550.0 1200.0,550.0" fill="none" stroke="#55617a" stroke-width="3.73" stroke-linecap="round" opacity="0.85" marker-end="url(#arrow)"/>
<path d="M1012.0,410.0 C1077.8,410.0 1134.2,410.0 1200.0,410.0" fill="none" stroke="#55617a" stroke-width="7.59" stroke-linecap="round" opacity="0.85" marker-end="url(#arrow)"/>
<path d="M1012.0,690.0 C1077.8,690.0 1134.2,690.0 1200.0,690.0" fill="none" stroke="#55617a" stroke-width="1.28" stroke-linecap="round" opacity="0.85" marker-end="url(#arrow)"/>
<path d="M1288.0,690.0 C1353.8,690.0 1410.2,550.0 1476.0,550.0" fill="none" stroke="#5f6d85" stroke-width="1.28" stroke-linecap="round" opacity="0.85" marker-end="url(#arrow)"/>
<path d="M1288.0,550.0 C1353.8,550.0 1410.2,550.0 1476.0,550.0" fill="none" stroke="#5f6d85" stroke-width="3.73" stroke-linecap="round" opacity="0.85" marker-end="url(#arrow)"/>
<path d="M1288.0,410.0 C1353.8,410.0 1410.2,550.0 1476.0,550.0" fill="none" stroke="#5f6d85" stroke-width="7.59" stroke-linecap="round" opacity="0.85" marker-end="url(#arrow)"/>
<g class="node" transform="translate(140.0,480.0)"><rect x="-24.0" y="-24.0" width="48" height="48" rx="10" ry="10" fill="url(#nodeGlow)" stroke="#8a93a6" stroke-width="1.2"/><rect x="-17.0" y="-17.0" width="34" height="34" rx="8" ry="8" fill="#0f1a2e" stroke="#2c3650" stroke-width="2"/><text class="label" x="0" y="40.0" text-anchor="middle" font-size="14" fill="#e6f0ff">Szülőpár 05</text><text class="label" x="0" y="56.0" text-anchor="middle" font-size="12" opacity="0.85">96 709 db</text></g>
<g class="node" transform="translate(140.0,620.0)"><rect x="-24.0" y="-24.0" width="48" height="48" rx="10" ry="10" fill="url(#nodeGlow)" stroke="#8a93a6" stroke-width="1.2"/><rect x="-17.0" y="-17.0" width="34" height="34" rx="8" ry="8" fill="#0f1a2e" stroke="#2c3650" stroke-width="2"/><text class="label" x="0" y="40.0" text-anchor="middle" font-size="14" fill="#e6f0ff">Szülőpár 10</text><text class="label" x="0" y="56.0" text-anchor="middle" font-size="12" opacity="0.85">940 db</text></g>
<g class="node" transform="translate(416.0,410.0)"><rect x="-24.0" y="-24.0" width="48" height="48" rx="10" ry="10" fill="url(#nodeGlow)" stroke="#8a93a6" stroke-width="1.2"/><rect x="-17.0" y="-17.0" width="34" height="34" rx="8" ry="8" fill="#0f1a2e" stroke="#2c3650" stroke-width="2"/><text class="label" x="0" y="40.0" text-anchor="middle" font-size="14" fill="#e6f0ff">Előkeltető 07</text><text class="label" x="0" y="56.0" text-anchor="middle" font-size="12" opacity="0.85">70 000 db</text></g>
<g class="node" transform="translate(416.0,550.0)"><rect x="-24.0" y="-24.0" width="48" height="48" rx="10" ry="10" fill="url(#nodeGlow)" stroke="#8a93a6" stroke-width="1.2"/><rect x="-17.0" y="-17.0" width="34" height="34" rx="8" ry="8" fill="#0f1a2e" stroke="#2c3650" stroke-width="2"/><text class="label" x="0" y="40.0" text-anchor="middle" font-size="14" fill="#e6f0ff">Előkeltető 06</text><text class="label" x="0" y="56.0" text-anchor="middle" font-size="12" opacity="0.85">26 709 db</text></g>
<g class="node" transform="translate(416.0,690.0)"><rect x="-24.0" y="-24.0" width="48" height="48" rx="10" ry="10" fill="url(#nodeGlow)" stroke="#8a93a6" stroke-width="1.2"/><rect x="-17.0" y="-17.0" width="34" height="34" rx="8" ry="8" fill="#0f1a2e" stroke="#2c3650" stroke-width="2"/><text class="label" x="0" y="40.0" text-anchor="middle" font-size="14" fill="#e6f0ff">Előkeltető 20</text><text class="label" x="0" y="56.0" text-anchor="middle" font-size="12" opacity="0.85">940 db</text></g>
<g class="node" transform="translate(692.0,480.0)"><rect x="-24.0" y="-24.0" width="48" height="48" rx="10" ry="10" fill="url(#nodeGlow)" stroke="#8a93a6" stroke-width="1.2"/><rect x="-17.0" y="-17.0" width="34" height="34" rx="8" ry="8" fill="#0f1a2e" stroke="#2c3650" stroke-width="2"/><text class="label" x="0" y="40.0" text-anchor="middle" font-size="14" fill="#e6f0ff">Batch P05</text><text class="label" x="0" y="56.0" text-anchor="middle" font-size="12" opacity="0.85">78 114 db</text></g>
<g class="node" transform="translate(692.0,620.0)"><rect x="-24.0" y="-24.0" width="48" height="48" rx="10" ry="10" fill="url(#nodeGlow)" stroke="#8a93a6" stroke-width="1.2"/><rect x="-17.0" y="-17.0" width="34" height="34" rx="8" ry="8" fill="#0f1a2e" stroke="#2c3650" stroke-width="2"/><text class="label" x="0" y="40.0" text-anchor="middle" font-size="14" fill="#e6f0ff">Batch P10</text><text class="label" x="0" y="56.0" text-anchor="middle" font-size="12" opacity="0.85">738 db</text></g>
<g class="node" transform="translate(968.0,410.0)"><rect x="-24.0" y="-24.0" width="48" height="48" rx="10" ry="10" fill="url(#nodeGlow)" stroke="#8a93a6" stroke-width="1.2"/><rect x="-17.0" y="-17.0" width="34" height="34" rx="8" ry="8" fill="#0f1a2e" stroke="#2c3650" stroke-width="2"/><text class="label" x="0" y="40.0" text-anchor="middle" font-size="14" fill="#e6f0ff">Utókeltető 54</text><text class="label" x="0" y="56.0" text-anchor="middle" font-size="12" opacity="0.85">55 948 db</text></g>
<g class="node" transform="translate(968.0,550.0)"><rect x="-24.0" y="-24.0" width="48" height="48" rx="10" ry="10" fill="url(#nodeGlow)" stroke="#8a93a6" stroke-width="1.2"/><rect x="-17.0" y="-17.0" width="34" height="34" rx="8" ry="8" fill="#0f1a2e" stroke="#2c3650" stroke-width="2"/><text class="label" x="0" y="40.0" text-anchor="middle" font-size="14" fill="#e6f0ff">Utókeltető 03</text><text class="label" x="0" y="56.0" text-anchor="middle" font-size="12" opacity="0.85">22 166 db</text></g>
<g class="node" transform="translate(968.0,690.0)"><rect x="-24.0" y="-24.0" width="48" height="48" rx="10" ry="10" fill="url(#nodeGlow)" stroke="#8a93a6" stroke-width="1.2"/><rect x="-17.0" y="-17.0" width="34" height="34" rx="8" ry="8" fill="#0f1a2e" stroke="#2c3650" stroke-width="2"/><text class="label" x="0" y="40.0" text-anchor="middle" font-size="14" fill="#e6f0ff">Utókeltető 20</text><text class="label" x="0" y="56.0" text-anchor="middle" font-size="12" opacity="0.85">738 db</text></g>
<g class="node" transform="translate(1244.0,410.0)"><rect x="-24.0" y="-24.0" width="48" height="48" rx="10" ry="10" fill="url(#nodeGlow)" stroke="#8a93a6" stroke-width="1.2"/><rect x="-17.0" y="-17.0" width="34" height="34" rx="8" ry="8" fill="#0f1a2e" stroke="#2c3650" stroke-width="2"/><text class="label" x="0" y="40.0" text-anchor="middle" font-size="14" fill="#e6f0ff">Kamion 01</text><text class="label" x="0" y="56.0" text-anchor="middle" font-size="12" opacity="0.85">55 948 db</text></g>
<g class="node" transform="translate(1244.0,550.0)"><rect x="-24.0" y="-24.0" width="48" height="48" rx="10" ry="10" fill="url(#nodeGlow)" stroke="#8a93a6" stroke-width="1.2"/><rect x="-17.0" y="-17.0" width="34" height="34" rx="8" ry="8" fill="#0f1a2e" stroke="#2c3650" stroke-width="2"/><text class="label" x="0" y="40.0" text-anchor="middle" font-size="14" fill="#e6f0ff">Kamion 01</text><text class="label" x="0" y="56.0" text-anchor="middle" font-size="12" opacity="0.85">22 166 db</text></g>
<g class="node" transform="translate(1244.0,690.0)"><rect x="-24.0" y="-24.0" width="48" height="48" rx="10" ry="10" fill="url(#nodeGlow)" stroke="#8a93a6" stroke-width="1.2"/><rect x="-17.0" y="-17.0" width="34" height="34" rx="8" ry="8" fill="#0f1a2e" stroke="#2c3650" stroke-width="2"/><text class="label" x="0" y="40.0" text-anchor="middle" font-size="14" fill="#e6f0ff">Kamion 01</text><text class="label" x="0" y="56.0" text-anchor="middle" font-size="12" opacity="0.85">738 db</text></g>
<g class="node" transform="translate(1520.0,550.0)"><rect x="-24.0" y="-24.0" width="48" height="48" rx="10" ry="10" fill="url(#nodeGlow)" stroke="#8a93a6" stroke-width="1.2"/><rect x="-17.0" y="-17.0" width="34" height="34" rx="8" ry="8" fill="#0f1a2e" stroke="#2c3650" stroke-width="2"/><text class="label" x="0" y="40.0" text-anchor="middle" font-size="14" fill="#e6f0ff">Kantorjanosi-barn-05</text><text class="label" x="0" y="56.0" text-anchor="middle" font-size="12" opacity="0.85">78 852 db</text></g>
<text class="label" x="80" y="72" font-size="24" fill="#f2f5ff" opacity="0.95">Kantorjanosi-barn-05 · 2025-03-23</text>
<g transform="translate(60,820)">
    <circle cx="0" cy="0" r="6" fill="#00e0ff"/>
    <text class="label" x="14" y="5" font-size="14">Kiemelt élő batch útvonala</text>
    <line x1="0" y1="30" x2="70" y2="30" stroke="#3b4556" stroke-width="3"/>
    <text class="label" x="82" y="35" font-size="14">Aggregált anyagáram</text>
    <rect x="-10" y="52" width="24" height="14" rx="3" ry="3" fill="#0e172a" stroke="#2a3450" stroke-width="1.5" stroke-dasharray="6 6"/>
    <text class="label" x="20" y="63" font-size="14">Csoport kerete</text>
</g>

<g transform="translate(1640.0,430.0)"><text class="label" x="0" y="0" font-size="15" opacity="0.85">Ól állapotváltozásai</text><text class="label" x="0" y="24" font-size="13" opacity="0.75">2025-03-02 01:17 +738 shipment-39 · shipment-39-truck-01</text><text class="label" x="0" y="44" font-size="13" opacity="0.75">2025-03-22 23:36 +22166 shipment-154 · shipment-154-truck-01</text><text class="label" x="0" y="64" font-size="13" opacity="0.75">2025-03-23 13:51 +31296 shipment-289 · shipment-289-truck-01</text><text class="label" x="0" y="84" font-size="13" opacity="0.75">2025-03-23 13:51 +24652 shipment-289 · shipment-289-truck-01</text></g>
</svg>