<?xml version="1.0" encoding="UTF-8" standalone="no"?>
<svg xmlns="http://www.w3.org/2000/svg" width="1700" height="1100" viewBox="0 0 1700 1100" style="background:#0b1220">
<defs>
            <radialGradient id="nodeGlow" cx="50%" cy="50%" r="60%">
                <stop offset="0%" stop-color="#ffffff" stop-opacity="0.15"/>
                <stop offset="100%" stop-color="#00ddeb" stop-opacity="0.08"/>
            </radialGradient>
            <filter id="softGlow" x="-50%" y="-50%" width="200%" height="200%">
                <feGaussianBlur stdDeviation="6" result="blur"/>
                <feMerge><feMergeNode in="blur"/><feMergeNode in="SourceGraphic"/></feMerge>
            </filter>
            <marker id="arrow" markerUnits="userSpaceOnUse" markerWidth="14" markerHeight="8" refX="12" refY="4" orient="auto">
                <path d="M0,0 L12,4 L0,8 Z" fill="#9aa4b2" />
            </marker>
            <marker id="arrowBright" markerUnits="userSpaceOnUse" markerWidth="16" markerHeight="10" refX="14" refY="5" orient="auto">
                <path d="M0,0 L14,5 L0,10 Z" fill="#00e0ff" />
            </marker>
            <style>
                .label { font-family: Inter, system-ui, -apple-system, Segoe UI, Roboto; fill:#c8cfdb; }
            </style>
        </defs>
<g class="group" id="group-parent"><rect x="30.0" y="320.0" width="220.0" height="460.0" rx="18" ry="18" fill="#0e172a" stroke="#2a3450" stroke-width="1.5" stroke-dasharray="6 6"/><text class="label" x="140.0" y="304.0" text-anchor="middle" font-size="15" opacity="0.9">Tojásfarmok / szülőpárok</text></g>
<g class="group" id="group-setter"><rect x="306.0" y="160.0" width="220.0" height="780.0" rx="18" ry="18" fill="#0e172a" stroke="#2a3450" stroke-width="1.5" stroke-dasharray="6 6"/><text class="label" x="416.0" y="144.0" text-anchor="middle" font-size="15" opacity="0.9">Előkeltetők</text></g>
<g class="group" id="group-transfer"><rect x="582.0" y="320.0" width="220.0" height="460.0" rx="18" ry="18" fill="#0e172a" stroke="#2a3450" stroke-width="1.5" stroke-dasharray="6 6"/><text class="label" x="692.0" y="304.0" text-anchor="middle" font-size="15" opacity="0.9">Transzfer (batch-ek)</text></g>
<g class="group" id="group-hatcher"><rect x="858.0" y="180.0" width="220.0" height="740.0" rx="18" ry="18" fill="#0e172a" stroke="#2a3450" stroke-width="1.5" stroke-dasharray="6 6"/><text class="label" x="968.0" y="164.0" text-anchor="middle" font-size="15" opacity="0.9">Utókeltetők</text></g>
<g class="group" id="group-truck"><rect x="1134.0" y="320.0" width="220.0" height="460.0" rx="18" ry="18" fill="#0e172a" stroke="#2a3450" stroke-width="1.5" stroke-dasharray="6 6"/><text class="label" x="1244.0" y="304.0" text-anchor="middle" font-size="15" opacity="0.9">Szállítás</text></g>
<g class="group" id="group-barn"><rect x="1410.0" y="460.0" width="220.0" height="180.0" rx="18" ry="18" fill="#0e172a" stroke="#2a3450" stroke-width="1.5" stroke-dasharray="6 6"/><text class="label" x="1520.0" y="444.0" text-anchor="middle" font-size="15" opacity="0.9">Cél ól</text></g>
<path d="M184.0,690.0 C249.8,690.0 306.2,610.0 372.0,610.0" fill="none" stroke="#3b4556" stroke-width="3.69" stroke-linecap="round" opacity="0.75" marker-end="url(#arrow)"/>
<path d="M184.0,690.0 C249.8,690.0 306.2,490.0 372.0,490.0" fill="none" stroke="#3b4556" stroke-width="4.60" stroke-linecap="round" opacity="0.75" marker-end="url(#arrow)"/>
<path d="M184.0,410.0 C249.8,410.0 306.2,850.0 372.0,850.0" fill="none" stroke="#3b4556" stroke-width="3.30" stroke-linecap="round" opacity="0.75" marker-end="url(#arrow)"/>
<path d="M184.0,410.0 C249.8,410.0 306.2,250.0 372.0,250.0" fill="none" stroke="#3b4556" stroke-width="9.03" stroke-linecap="round" opacity="0.75" marker-end="url(#arrow)"/>
<path d="M184.0,550.0 C249.8,550.0 306.2,370.0 372.0,370.0" fill="none" stroke="#3b4556" stroke-width="5.05" stroke-linecap="round" opacity="0.75" marker-end="url(#arrow)"/>
<path d="M184.0,550.0 C249.8,550.0 306.2,730.0 372.0,730.0" fill="none" stroke="#3b4556" stroke-width="3.43" stroke-linecap="round" opacity="0.75" marker-end="url(#arrow)"/>
<path d="M460.0,610.0 C525.8,610.0 582.2,690.0 648.0,690.0" fill="none" stroke="#465065" stroke-width="3.23" stroke-linecap="round" opacity="0.75" marker-end="url(#arrow)"/>
<path d="M460.0,490.0 C525.8,490.0 582.2,690.0 648.0,690.0" fill="none" stroke="#465065" stroke-width="3.99" stroke-linecap="round" opacity="0.75" marker-end="url(#arrow)"/>
<path d="M460.0,850.0 C525.8,850.0 582.2,410.0 648.0,410.0" fill="none" stroke="#465065" stroke-width="2.86" stroke-linecap="round" opacity="0.75" marker-end="url(#arrow)"/>
<path d="M460.0,250.0 C525.8,250.0 582.2,410.0 648.0,410.0" fill="none" stroke="#465065" stroke-width="7.54" stroke-linecap="round" opacity="0.75" marker-end="url(#arrow)"/>
<path d="M460.0,370.0 C525.8,370.0 582.2,550.0 648.0,550.0" fill="none" stroke="#465065" stroke-width="4.26" stroke-linecap="round" opacity="0.75" marker-end="url(#arrow)"/>
<path d="M460.0,730.0 C525.8,730.0 582.2,550.0 648.0,550.0" fill="none" stroke="#465065" stroke-width="2.97" stroke-linecap="round" opacity="0.75" marker-end="url(#arrow)"/>
<path d="M736.0,690.0 C801.8,690.0 858.2,690.0 924.0,690.0" fill="none" stroke="#4b566a" stroke-width="3.23" stroke-linecap="round" opacity="0.75" marker-end="url(#arrow)"/>
<path d="M736.0,690.0 C801.8,690.0 858.2,550.0 924.0,550.0" fill="none" stroke="#4b566a" stroke-width="3.99" stroke-linecap="round" opacity="0.75" marker-end="url(#arrow)"/>
<path d="M736.0,410.0 C801.8,410.0 858.2,270.0 924.0,270.0" fill="none" stroke="#4b566a" stroke-width="9.20" stroke-linecap="round" opacity="0.75" marker-end="url(#arrow)"/>
<path d="M736.0,550.0 C801.8,550.0 858.2,410.0 924.0,410.0" fill="none" stroke="#4b566a" stroke-width="5.68" stroke-linecap="round" opacity="0.75" marker-end="url(#arrow)"/>
<path d="M736.0,550.0 C801.8,550.0 858.2,830.0 924.0,830.0" fill="none" stroke="#4b566a" stroke-width="1.55" stroke-linecap="round" opacity="0.75" marker-end="url(#arrow)"/>
<path d="M1012.0,690.0 C1077.8,690.0 1134.2,690.0 1200.0,690.0" fill="none" stroke="#55617a" stroke-width="3.23" stroke-linecap="round" opacity="0.85" marker-end="url(#arrow)"/>
<path d="M1012.0,550.0 C1077.8,550.0 1134.2,690.0 1200.0,690.0" fill="none" stroke="#55617a" stroke-width="3.99" stroke-linecap="round" opacity="0.85" marker-end="url(#arrow)"/>
<path d="M1012.0,270.0 C1077.8,270.0 1134.2,410.0 1200.0,410.0" fill="none" stroke="#55617a" stroke-width="9.20" stroke-linecap="round" opacity="0.85" marker-end="url(#arrow)"/>
<path d="M1012.0,410.0 C1077.8,410.0 1134.2,550.0 1200.0,550.0" fill="none" stroke="#55617a" stroke-width="5.68" stroke-linecap="round" opacity="0.85" marker-end="url(#arrow)"/>
<path d="M1012.0,830.0 C1077.8,830.0 1134.2,550.0 1200.0,550.0" fill="none" stroke="#55617a" stroke-width="1.55" stroke-linecap="round" opacity="0.85" marker-end="url(#arrow)"/>
<path d="M1288.0,690.0 C1353.8,690.0 1410.2,550.0 1476.0,550.0" fill="none" stroke="#5f6d85" stroke-width="6.02" stroke-linecap="round" opacity="0.85" marker-end="url(#arrow)"/>
<path d="M1288.0,410.0 C1353.8,410.0 1410.2,550.0 1476.0,550.0" fill="none" stroke="#5f6d85" stroke-width="9.20" stroke-linecap="round" opacity="0.85" marker-end="url(#arrow)"/>
<path d="M1288.0,550.0 C1353.8,550.0 1410.2,550.0 1476.0,550.0" fill="none" stroke="#5f6d85" stroke-width="6.03" stroke-linecap="round" opacity="0.85" marker-end="url(#arrow)"/>
<g class="node" transform="translate(140.0,410.0)"><rect x="-24.0" y="-24.0" width="48" height="48" rx="10" ry="10" fill="url(#nodeGlow)" stroke="#8a93a6" stroke-width="1.2"/><rect x="-17.0" y="-17.0" width="34" height="34" rx="8" ry="8" fill="#0f1a2e" stroke="#2c3650" stroke-width="2"/><text class="label" x="0" y="40.0" text-anchor="middle" font-size="14" fill="#e6f0ff">Szülőpár 05</text><text class="label" x="0" y="56.0" text-anchor="middle" font-size="12" opacity="0.85">49 949 db</text></g>
<g class="node" transform="translate(140.0,550.0)"><rect x="-24.0" y="-24.0" width="48" height="48" rx="10" ry="10" fill="url(#nodeGlow)" stroke="#8a93a6" stroke-width="1.2"/><rect x="-17.0" y="-17.0" width="34" height="34" rx="8" ry="8" fill="#0f1a2e" stroke="#2c3650" stroke-width="2"/><text class="label" x="0" y="40.0" text-anchor="middle" font-size="14" fill="#e6f0ff">Szülőpár 07</text><text class="label" x="0" y="56.0" text-anchor="middle" font-size="12" opacity="0.85">30 579 db</text></g>
<g class="node" transform="translate(140.0,690.0)"><rect x="-24.0" y="-24.0" width="48" height="48" rx="10" ry="10" fill="url(#nodeGlow)" stroke="#8a93a6" stroke-width="1.2"/><rect x="-17.0" y="-17.0" width="34" height="34" rx="8" ry="8" fill="#0f1a2e" stroke="#2c3650" stroke-width="2"/><text class="label" x="0" y="40.0" text-anchor="middle" font-size="14" fill="#e6f0ff">Szülőpár 03</text><text class="label" x="0" y="56.0" text-anchor="middle" font-size="12" opacity="0.85">29 639 db</text></g>
<g class="node" transform="translate(416.0,250.0)"><rect x="-24.0" y="-24.0" width="48" height="48" rx="10" ry="10" fill="url(#nodeGlow)" stroke="#8a93a6" stroke-width="1.2"/><rect x="-17.0" y="-17.0" width="34" height="34" rx="8" ry="8" fill="#0f1a2e" stroke="#2c3650" stroke-width="2"/><text class="label" x="0" y="40.0" text-anchor="middle" font-size="14" fill="#e6f0ff">Előkeltető 11</text><text class="label" x="0" y="56.0" text-anchor="middle" font-size="12" opacity="0.85">39 400 db</text></g>
<g class="node" transform="translate(416.0,370.0)"><rect x="-24.0" y="-24.0" width="48" height="48" rx="10" ry="10" fill="url(#nodeGlow)" stroke="#8a93a6" stroke-width="1.2"/><rect x="-17.0" y="-17.0" width="34" height="34" rx="8" ry="8" fill="#0f1a2e" stroke="#2c3650" stroke-width="2"/><text class="label" x="0" y="40.0" text-anchor="middle" font-size="14" fill="#e6f0ff">Előkeltető 12</text><text class="label" x="0" y="56.0" text-anchor="middle" font-size="12" opacity="0.85">19 375 db</text></g>
<g class="node" transform="translate(416.0,490.0)"><rect x="-24.0" y="-24.0" width="48" height="48" rx="10" ry="10" fill="url(#nodeGlow)" stroke="#8a93a6" stroke-width="1.2"/><rect x="-17.0" y="-17.0" width="34" height="34" rx="8" ry="8" fill="#0f1a2e" stroke="#2c3650" stroke-width="2"/><text class="label" x="0" y="40.0" text-anchor="middle" font-size="14" fill="#e6f0ff">Előkeltető 03</text><text class="label" x="0" y="56.0" text-anchor="middle" font-size="12" opacity="0.85">17 120 db</text></g>
<g class="node" transform="translate(416.0,610.0)"><rect x="-24.0" y="-24.0" width="48" height="48" rx="10" ry="10" fill="url(#nodeGlow)" stroke="#8a93a6" stroke-width="1.2"/><rect x="-17.0" y="-17.0" width="34" height="34" rx="8" ry="8" fill="#0f1a2e" stroke="#2c3650" stroke-width="2"/><text class="label" x="0" y="40.0" text-anchor="middle" font-size="14" fill="#e6f0ff">Előkeltető 02</text><text class="label" x="0" y="56.0" text-anchor="middle" font-size="12" opacity="0.85">12 520 db</text></g>
<g class="node" transform="translate(416.0,730.0)"><rect x="-24.0" y="-24.0" width="48" height="48" rx="10" ry="10" fill="url(#nodeGlow)" stroke="#8a93a6" stroke-width="1.2"/><rect x="-17.0" y="-17.0" width="34" height="34" rx="8" ry="8" fill="#0f1a2e" stroke="#2c3650" stroke-width="2"/><text class="label" x="0" y="40.0" text-anchor="middle" font-size="14" fill="#e6f0ff">Előkeltető 13</text><text class="label" x="0" y="56.0" text-anchor="middle" font-size="12" opacity="0.85">11 204 db</text></g>
<g class="node" transform="translate(416.0,850.0)"><rect x="-24.0" y="-24.0" width="48" height="48" rx="10" ry="10" fill="url(#nodeGlow)" stroke="#8a93a6" stroke-width="1.2"/><rect x="-17.0" y="-17.0" width="34" height="34" rx="8" ry="8" fill="#0f1a2e" stroke="#2c3650" stroke-width="2"/><text class="label" x="0" y="40.0" text-anchor="middle" font-size="14" fill="#e6f0ff">Előkeltető 10</text><text class="label" x="0" y="56.0" text-anchor="middle" font-size="12" opacity="0.85">10 549 db</text></g>
<g class="node" transform="translate(692.0,410.0)"><rect x="-24.0" y="-24.0" width="48" height="48" rx="10" ry="10" fill="url(#nodeGlow)" stroke="#8a93a6" stroke-width="1.2"/><rect x="-17.0" y="-17.0" width="34" height="34" rx="8" ry="8" fill="#0f1a2e" stroke="#2c3650" stroke-width="2"/><text class="label" x="0" y="40.0" text-anchor="middle" font-size="14" fill="#e6f0ff">Batch P05</text><text class="label" x="0" y="56.0" text-anchor="middle" font-size="12" opacity="0.85">40 241 db</text></g>
<g class="node" transform="translate(692.0,550.0)"><rect x="-24.0" y="-24.0" width="48" height="48" rx="10" ry="10" fill="url(#nodeGlow)" stroke="#8a93a6" stroke-width="1.2"/><rect x="-17.0" y="-17.0" width="34" height="34" rx="8" ry="8" fill="#0f1a2e" stroke="#2c3650" stroke-width="2"/><text class="label" x="0" y="40.0" text-anchor="middle" font-size="14" fill="#e6f0ff">Batch P07</text><text class="label" x="0" y="56.0" text-anchor="middle" font-size="12" opacity="0.85">24 295 db</text></g>
<g class="node" transform="translate(692.0,690.0)"><rect x="-24.0" y="-24.0" width="48" height="48" rx="10" ry="10" fill="url(#nodeGlow)" stroke="#8a93a6" stroke-width="1.2"/><rect x="-17.0" y="-17.0" width="34" height="34" rx="8" ry="8" fill="#0f1a2e" stroke="#2c3650" stroke-width="2"/><text class="label" x="0" y="40.0" text-anchor="middle" font-size="14" fill="#e6f0ff">Batch P03</text><text class="label" x="0" y="56.0" text-anchor="middle" font-size="12" opacity="0.85">24 264 db</text></g>
<g class="node" transform="translate(968.0,270.0)"><rect x="-24.0" y="-24.0" width="48" height="48" rx="10" ry="10" fill="url(#nodeGlow)" stroke="#8a93a6" stroke-width="1.2"/><rect x="-17.0" y="-17.0" width="34" height="34" rx="8" ry="8" fill="#0f1a2e" stroke="#2c3650" stroke-width="2"/><text class="label" x="0" y="40.0" text-anchor="middle" font-size="14" fill="#e6f0ff">Utókeltető 10</text><text class="label" x="0" y="56.0" text-anchor="middle" font-size="12" opacity="0.85">40 241 db</text></g>
<g class="node" transform="translate(968.0,410.0)"><rect x="-24.0" y="-24.0" width="48" height="48" rx="10" ry="10" fill="url(#nodeGlow)" stroke="#8a93a6" stroke-width="1.2"/><rect x="-17.0" y="-17.0" width="34" height="34" rx="8" ry="8" fill="#0f1a2e" stroke="#2c3650" stroke-width="2"/><text class="label" x="0" y="40.0" text-anchor="middle" font-size="14" fill="#e6f0ff">Utókeltető 12</text><text class="label" x="0" y="56.0" text-anchor="middle" font-size="12" opacity="0.85">22 520 db</text></g>
<g class="node" transform="translate(968.0,550.0)"><rect x="-24.0" y="-24.0" width="48" height="48" rx="10" ry="10" fill="url(#nodeGlow)" stroke="#8a93a6" stroke-width="1.2"/><rect x="-17.0" y="-17.0" width="34" height="34" rx="8" ry="8" fill="#0f1a2e" stroke="#2c3650" stroke-width="2"/><text class="label" x="0" y="40.0" text-anchor="middle" font-size="14" fill="#e6f0ff">Utókeltető 03</text><text class="label" x="0" y="56.0" text-anchor="middle" font-size="12" opacity="0.85">14 058 db</text></g>
<g class="node" transform="translate(968.0,690.0)"><rect x="-24.0" y="-24.0" width="48" height="48" rx="10" ry="10" fill="url(#nodeGlow)" stroke="#8a93a6" stroke-width="1.2"/><rect x="-17.0" y="-17.0" width="34" height="34" rx="8" ry="8" fill="#0f1a2e" stroke="#2c3650" stroke-width="2"/><text class="label" x="0" y="40.0" text-anchor="middle" font-size="14" fill="#e6f0ff">Utókeltető 02</text><text class="label" x="0" y="56.0" text-anchor="middle" font-size="12" opacity="0.85">10 206 db</text></g>
<g class="node" transform="translate(968.0,830.0)"><rect x="-24.0" y="-24.0" width="48" height="48" rx="10" ry="10" fill="url(#nodeGlow)" stroke="#8a93a6" stroke-width="1.2"/><rect x="-17.0" y="-17.0" width="34" height="34" rx="8" ry="8" fill="#0f1a2e" stroke="#2c3650" stroke-width="2"/><text class="label" x="0" y="40.0" text-anchor="middle" font-size="14" fill="#e6f0ff">Utókeltető 11</text><text class="label" x="0" y="56.0" text-anchor="middle" font-size="12" opacity="0.85">1 775 db</text></g>
<g class="node" transform="translate(1244.0,410.0)"><rect x="-24.0" y="-24.0" width="48" height="48" rx="10" ry="10" fill="url(#nodeGlow)" stroke="#8a93a6" stroke-width="1.2"/><rect x="-17.0" y="-17.0" width="34" height="34" rx="8" ry="8" fill="#0f1a2e" stroke="#2c3650" stroke-width="2"/><text class="label" x="0" y="40.0" text-anchor="middle" font-size="14" fill="#e6f0ff">Kamion 01</text><text class="label" x="0" y="56.0" text-anchor="middle" font-size="12" opacity="0.85">40 241 db</text></g>
<g class="node" transform="translate(1244.0,550.0)"><rect x="-24.0" y="-24.0" width="48" height="48" rx="10" ry="10" fill="url(#nodeGlow)" stroke="#8a93a6" stroke-width="1.2"/><rect x="-17.0" y="-17.0" width="34" height="34" rx="8" ry="8" fill="#0f1a2e" stroke="#2c3650" stroke-width="2"/><text class="label" x="0" y="40.0" text-anchor="middle" font-size="14" fill="#e6f0ff">Kamion 01</text><text class="label" x="0" y="56.0" text-anchor="middle" font-size="12" opacity="0.85">24 295 db</text></g>
<g class="node" transform="translate(1244.0,690.0)"><rect x="-24.0" y="-24.0" width="48" height="48" rx="10" ry="10" fill="url(#nodeGlow)" stroke="#8a93a6" stroke-width="1.2"/><rect x="-17.0" y="-17.0" width="34" height="34" rx="8" ry="8" fill="#0f1a2e" stroke="#2c3650" stroke-width="2"/><text class="label" x="0" y="40.0" text-anchor="middle" font-size="14" fill="#e6f0ff">Kamion 02</text><text class="label" x="0" y="56.0" text-anchor="middle" font-size="12" opacity="0.85">24 264 db</text></g>
<g class="node" transform="translate(1520.0,550.0)"><rect x="-24.0" y="-24.0" width="48" height="48" rx="10" ry="10" fill="url(#nodeGlow)" stroke="#8a93a6" stroke-width="1.2"/><rect x="-17.0" y="-17.0" width="34" height="34" rx="8" ry="8" fill="#0f1a2e" stroke="#2c3650" stroke-width="2"/><text class="label" x="0" y="40.0" text-anchor="middle" font-size="14" fill="#e6f0ff">Kaba-barn-04</text><text class="label" x="0" y="56.0" text-anchor="middle" font-size="12" opacity="0.85">88 800 db</text></g>
<text class="label" x="80" y="72" font-size="24" fill="#f2f5ff" opacity="0.95">Kaba-barn-04 · 2025-02-27</text>
<g transform="translate(60,820)">
    <circle cx="0" cy="0" r="6" fill="#00e0ff"/>
    <text class="label" x="14" y="5" font-size="14">Kiemelt élő batch útvonala</text>
    <line x1="0" y1="30" x2="70" y2="30" stroke="#3b4556" stroke-width="3"/>
    <text class="label" x="82" y="35" font-size="14">Aggregált anyagáram</text>
    <rect x="-10" y="52" width="24" height="14" rx="3" ry="3" fill="#0e172a" stroke="#2a3450" stroke-width="1.5" stroke-dasharray="6 6"/>
    <text class="label" x="20" y="63" font-size="14">Csoport kerete</text>
</g>

<g transform="translate(1640.0,430.0)"><text class="label" x="0" y="0" font-size="15" opacity="0.85">Ól állapotváltozásai</text><text class="label" x="0" y="24" font-size="13" opacity="0.75">2025-02-02 02:15 +24264 shipment-2 · shipment-2-truck-02</text><text class="label" x="0" y="44" font-size="13" opacity="0.75">2025-02-27 02:14 +40241 shipment-79 · shipment-79-truck-01</text><text class="label" x="0" y="64" font-size="13" opacity="0.75">2025-02-27 08:16 +24295 shipment-81 · shipment-81-truck-01</text></g>
</svg>