<?xml version="1.0" encoding="UTF-8" standalone="no"?>
<svg xmlns="http://www.w3.org/2000/svg" width="1600" height="1000" viewBox="0 0 1600 1000" style="background:#0b1220">
<defs>
            <radialGradient id="nodeGlow" cx="50%" cy="50%" r="60%">
                <stop offset="0%" stop-color="#ffffff" stop-opacity="0.15"/>
                <stop offset="100%" stop-color="#00ddeb" stop-opacity="0.08"/>
            </radialGradient>
            <filter id="softGlow" x="-50%" y="-50%" width="200%" height="200%">
                <feGaussianBlur stdDeviation="6" result="blur"/>
                <feMerge><feMergeNode in="blur"/><feMergeNode in="SourceGraphic"/></feMerge>
            </filter>
            <marker id="arrow" markerWidth="8" markerHeight="8" refX="6" refY="3" orient="auto">
                <path d="M0,0 L6,3 L0,6 Z" fill="#9aa4b2" />
            </marker>
            <marker id="arrowBright" markerWidth="10" markerHeight="10" refX="7" refY="5" orient="auto">
                <path d="M0,0 L9,5 L0,10 Z" fill="#00e0ff" />
            </marker>
            <style>
                .label { font-family: Inter, system-ui, -apple-system, Segoe UI, Roboto; fill:#c8cfdb; }
            </style>
        </defs>
<g class="group" id="group-setter"><rect x="250.0" y="110.0" width="220.0" height="780.0" rx="18" ry="18" fill="#0e172a" stroke="#2a3450" stroke-width="1.5" stroke-dasharray="6 6"/><text class="label" x="360.0" y="94.0" text-anchor="middle" font-size="15" opacity="0.9">Előkeltetők</text></g>
<g class="group" id="group-hatcher"><rect x="570.0" y="110.0" width="220.0" height="780.0" rx="18" ry="18" fill="#0e172a" stroke="#2a3450" stroke-width="1.5" stroke-dasharray="6 6"/><text class="label" x="680.0" y="94.0" text-anchor="middle" font-size="15" opacity="0.9">Utókeltetők</text></g>
<g class="group" id="group-truck"><rect x="890.0" y="110.0" width="220.0" height="780.0" rx="18" ry="18" fill="#0e172a" stroke="#2a3450" stroke-width="1.5" stroke-dasharray="6 6"/><text class="label" x="1000.0" y="94.0" text-anchor="middle" font-size="15" opacity="0.9">Szállítás</text></g>
<g class="group" id="group-barn"><rect x="1170.0" y="410.0" width="220.0" height="180.0" rx="18" ry="18" fill="#0e172a" stroke="#2a3450" stroke-width="1.5" stroke-dasharray="6 6"/><text class="label" x="1280.0" y="394.0" text-anchor="middle" font-size="15" opacity="0.9">Cél istálló</text></g>
<path d="M180.0,500.0 C222.0,500.0 258.0,800.0 300.0,800.0" fill="none" stroke="#3b4556" stroke-width="7.60" opacity="0.75" marker-end="url(#arrow)"/>
<path d="M180.0,500.0 C222.0,500.0 258.0,275.0 300.0,275.0" fill="none" stroke="#3b4556" stroke-width="3.65" opacity="0.75" marker-end="url(#arrow)"/>
<path d="M180.0,500.0 C222.0,500.0 258.0,575.0 300.0,575.0" fill="none" stroke="#3b4556" stroke-width="2.30" opacity="0.75" marker-end="url(#arrow)"/>
<path d="M180.0,500.0 C222.0,500.0 258.0,350.0 300.0,350.0" fill="none" stroke="#3b4556" stroke-width="2.96" opacity="0.75" marker-end="url(#arrow)"/>
<path d="M180.0,500.0 C222.0,500.0 258.0,500.0 300.0,500.0" fill="none" stroke="#3b4556" stroke-width="2.38" opacity="0.75" marker-end="url(#arrow)"/>
<path d="M180.0,500.0 C222.0,500.0 258.0,200.0 300.0,200.0" fill="none" stroke="#3b4556" stroke-width="3.81" opacity="0.75" marker-end="url(#arrow)"/>
<path d="M180.0,500.0 C222.0,500.0 258.0,425.0 300.0,425.0" fill="none" stroke="#3b4556" stroke-width="2.40" opacity="0.75" marker-end="url(#arrow)"/>
<path d="M180.0,500.0 C222.0,500.0 258.0,650.0 300.0,650.0" fill="none" stroke="#3b4556" stroke-width="2.22" opacity="0.75" marker-end="url(#arrow)"/>
<path d="M180.0,500.0 C222.0,500.0 258.0,725.0 300.0,725.0" fill="none" stroke="#3b4556" stroke-width="2.19" opacity="0.75" marker-end="url(#arrow)"/>
<path d="M420.0,800.0 C490.0,800.0 550.0,800.0 620.0,800.0" fill="none" stroke="#4b566a" stroke-width="5.27" opacity="0.75" marker-end="url(#arrow)"/>
<path d="M420.0,800.0 C490.0,800.0 550.0,350.0 620.0,350.0" fill="none" stroke="#4b566a" stroke-width="1.89" opacity="0.75" marker-end="url(#arrow)"/>
<path d="M420.0,275.0 C490.0,275.0 550.0,800.0 620.0,800.0" fill="none" stroke="#4b566a" stroke-width="2.76" opacity="0.75" marker-end="url(#arrow)"/>
<path d="M420.0,275.0 C490.0,275.0 550.0,725.0 620.0,725.0" fill="none" stroke="#4b566a" stroke-width="1.77" opacity="0.75" marker-end="url(#arrow)"/>
<path d="M420.0,275.0 C490.0,275.0 550.0,650.0 620.0,650.0" fill="none" stroke="#4b566a" stroke-width="1.79" opacity="0.75" marker-end="url(#arrow)"/>
<path d="M420.0,275.0 C490.0,275.0 550.0,425.0 620.0,425.0" fill="none" stroke="#4b566a" stroke-width="1.73" opacity="0.75" marker-end="url(#arrow)"/>
<path d="M420.0,575.0 C490.0,575.0 550.0,800.0 620.0,800.0" fill="none" stroke="#4b566a" stroke-width="2.01" opacity="0.75" marker-end="url(#arrow)"/>
<path d="M420.0,575.0 C490.0,575.0 550.0,425.0 620.0,425.0" fill="none" stroke="#4b566a" stroke-width="1.70" opacity="0.75" marker-end="url(#arrow)"/>
<path d="M420.0,575.0 C490.0,575.0 550.0,650.0 620.0,650.0" fill="none" stroke="#4b566a" stroke-width="1.67" opacity="0.75" marker-end="url(#arrow)"/>
<path d="M420.0,800.0 C490.0,800.0 550.0,425.0 620.0,425.0" fill="none" stroke="#4b566a" stroke-width="1.68" opacity="0.75" marker-end="url(#arrow)"/>
<path d="M420.0,800.0 C490.0,800.0 550.0,650.0 620.0,650.0" fill="none" stroke="#4b566a" stroke-width="1.69" opacity="0.75" marker-end="url(#arrow)"/>
<path d="M420.0,800.0 C490.0,800.0 550.0,275.0 620.0,275.0" fill="none" stroke="#4b566a" stroke-width="1.73" opacity="0.75" marker-end="url(#arrow)"/>
<path d="M420.0,350.0 C490.0,350.0 550.0,800.0 620.0,800.0" fill="none" stroke="#4b566a" stroke-width="2.28" opacity="0.75" marker-end="url(#arrow)"/>
<path d="M420.0,350.0 C490.0,350.0 550.0,575.0 620.0,575.0" fill="none" stroke="#4b566a" stroke-width="1.68" opacity="0.75" marker-end="url(#arrow)"/>
<path d="M420.0,350.0 C490.0,350.0 550.0,200.0 620.0,200.0" fill="none" stroke="#4b566a" stroke-width="1.73" opacity="0.75" marker-end="url(#arrow)"/>
<path d="M420.0,500.0 C490.0,500.0 550.0,500.0 620.0,500.0" fill="none" stroke="#4b566a" stroke-width="1.74" opacity="0.75" marker-end="url(#arrow)"/>
<path d="M420.0,500.0 C490.0,500.0 550.0,800.0 620.0,800.0" fill="none" stroke="#4b566a" stroke-width="2.08" opacity="0.75" marker-end="url(#arrow)"/>
<path d="M420.0,800.0 C490.0,800.0 550.0,500.0 620.0,500.0" fill="none" stroke="#4b566a" stroke-width="1.75" opacity="0.75" marker-end="url(#arrow)"/>
<path d="M420.0,800.0 C490.0,800.0 550.0,575.0 620.0,575.0" fill="none" stroke="#4b566a" stroke-width="1.76" opacity="0.75" marker-end="url(#arrow)"/>
<path d="M420.0,800.0 C490.0,800.0 550.0,200.0 620.0,200.0" fill="none" stroke="#4b566a" stroke-width="1.70" opacity="0.75" marker-end="url(#arrow)"/>
<path d="M420.0,350.0 C490.0,350.0 550.0,275.0 620.0,275.0" fill="none" stroke="#4b566a" stroke-width="1.81" opacity="0.75" marker-end="url(#arrow)"/>
<path d="M420.0,200.0 C490.0,200.0 550.0,200.0 620.0,200.0" fill="none" stroke="#4b566a" stroke-width="2.71" opacity="0.75" marker-end="url(#arrow)"/>
<path d="M420.0,200.0 C490.0,200.0 550.0,275.0 620.0,275.0" fill="none" stroke="#4b566a" stroke-width="1.67" opacity="0.75" marker-end="url(#arrow)"/>
<path d="M420.0,200.0 C490.0,200.0 550.0,800.0 620.0,800.0" fill="none" stroke="#4b566a" stroke-width="2.10" opacity="0.75" marker-end="url(#arrow)"/>
<path d="M420.0,800.0 C490.0,800.0 550.0,725.0 620.0,725.0" fill="none" stroke="#4b566a" stroke-width="1.76" opacity="0.75" marker-end="url(#arrow)"/>
<path d="M420.0,200.0 C490.0,200.0 550.0,575.0 620.0,575.0" fill="none" stroke="#4b566a" stroke-width="1.72" opacity="0.75" marker-end="url(#arrow)"/>
<path d="M420.0,425.0 C490.0,425.0 550.0,800.0 620.0,800.0" fill="none" stroke="#4b566a" stroke-width="2.06" opacity="0.75" marker-end="url(#arrow)"/>
<path d="M420.0,425.0 C490.0,425.0 550.0,350.0 620.0,350.0" fill="none" stroke="#4b566a" stroke-width="1.65" opacity="0.75" marker-end="url(#arrow)"/>
<path d="M420.0,425.0 C490.0,425.0 550.0,500.0 620.0,500.0" fill="none" stroke="#4b566a" stroke-width="1.67" opacity="0.75" marker-end="url(#arrow)"/>
<path d="M420.0,425.0 C490.0,425.0 550.0,425.0 620.0,425.0" fill="none" stroke="#4b566a" stroke-width="1.66" opacity="0.75" marker-end="url(#arrow)"/>
<path d="M420.0,650.0 C490.0,650.0 550.0,800.0 620.0,800.0" fill="none" stroke="#4b566a" stroke-width="2.10" opacity="0.75" marker-end="url(#arrow)"/>
<path d="M420.0,725.0 C490.0,725.0 550.0,800.0 620.0,800.0" fill="none" stroke="#4b566a" stroke-width="2.01" opacity="0.75" marker-end="url(#arrow)"/>
<path d="M420.0,725.0 C490.0,725.0 550.0,350.0 620.0,350.0" fill="none" stroke="#4b566a" stroke-width="1.66" opacity="0.75" marker-end="url(#arrow)"/>
<path d="M740.0,800.0 C810.0,800.0 870.0,800.0 940.0,800.0" fill="none" stroke="#55617a" stroke-width="6.85" opacity="0.85" marker-end="url(#arrow)"/>
<path d="M740.0,350.0 C810.0,350.0 870.0,800.0 940.0,800.0" fill="none" stroke="#55617a" stroke-width="2.00" opacity="0.85" marker-end="url(#arrow)"/>
<path d="M740.0,800.0 C810.0,800.0 870.0,300.0 940.0,300.0" fill="none" stroke="#55617a" stroke-width="2.24" opacity="0.85" marker-end="url(#arrow)"/>
<path d="M740.0,725.0 C810.0,725.0 870.0,300.0 940.0,300.0" fill="none" stroke="#55617a" stroke-width="1.67" opacity="0.85" marker-end="url(#arrow)"/>
<path d="M740.0,650.0 C810.0,650.0 870.0,300.0 940.0,300.0" fill="none" stroke="#55617a" stroke-width="1.74" opacity="0.85" marker-end="url(#arrow)"/>
<path d="M740.0,425.0 C810.0,425.0 870.0,300.0 940.0,300.0" fill="none" stroke="#55617a" stroke-width="1.74" opacity="0.85" marker-end="url(#arrow)"/>
<path d="M740.0,425.0 C810.0,425.0 870.0,800.0 940.0,800.0" fill="none" stroke="#55617a" stroke-width="1.76" opacity="0.85" marker-end="url(#arrow)"/>
<path d="M740.0,650.0 C810.0,650.0 870.0,800.0 940.0,800.0" fill="none" stroke="#55617a" stroke-width="1.70" opacity="0.85" marker-end="url(#arrow)"/>
<path d="M740.0,275.0 C810.0,275.0 870.0,800.0 940.0,800.0" fill="none" stroke="#55617a" stroke-width="1.73" opacity="0.85" marker-end="url(#arrow)"/>
<path d="M740.0,575.0 C810.0,575.0 870.0,800.0 940.0,800.0" fill="none" stroke="#55617a" stroke-width="1.77" opacity="0.85" marker-end="url(#arrow)"/>
<path d="M740.0,200.0 C810.0,200.0 870.0,800.0 940.0,800.0" fill="none" stroke="#55617a" stroke-width="1.70" opacity="0.85" marker-end="url(#arrow)"/>
<path d="M740.0,500.0 C810.0,500.0 870.0,400.0 940.0,400.0" fill="none" stroke="#55617a" stroke-width="1.88" opacity="0.85" marker-end="url(#arrow)"/>
<path d="M740.0,800.0 C810.0,800.0 870.0,400.0 940.0,400.0" fill="none" stroke="#55617a" stroke-width="2.31" opacity="0.85" marker-end="url(#arrow)"/>
<path d="M740.0,500.0 C810.0,500.0 870.0,800.0 940.0,800.0" fill="none" stroke="#55617a" stroke-width="1.68" opacity="0.85" marker-end="url(#arrow)"/>
<path d="M740.0,200.0 C810.0,200.0 870.0,500.0 940.0,500.0" fill="none" stroke="#55617a" stroke-width="1.73" opacity="0.85" marker-end="url(#arrow)"/>
<path d="M740.0,275.0 C810.0,275.0 870.0,500.0 940.0,500.0" fill="none" stroke="#55617a" stroke-width="1.88" opacity="0.85" marker-end="url(#arrow)"/>
<path d="M740.0,575.0 C810.0,575.0 870.0,500.0 940.0,500.0" fill="none" stroke="#55617a" stroke-width="1.67" opacity="0.85" marker-end="url(#arrow)"/>
<path d="M740.0,800.0 C810.0,800.0 870.0,500.0 940.0,500.0" fill="none" stroke="#55617a" stroke-width="2.09" opacity="0.85" marker-end="url(#arrow)"/>
<path d="M740.0,725.0 C810.0,725.0 870.0,800.0 940.0,800.0" fill="none" stroke="#55617a" stroke-width="1.79" opacity="0.85" marker-end="url(#arrow)"/>
<path d="M740.0,200.0 C810.0,200.0 870.0,600.0 940.0,600.0" fill="none" stroke="#55617a" stroke-width="1.72" opacity="0.85" marker-end="url(#arrow)"/>
<path d="M740.0,800.0 C810.0,800.0 870.0,600.0 940.0,600.0" fill="none" stroke="#55617a" stroke-width="2.20" opacity="0.85" marker-end="url(#arrow)"/>
<path d="M740.0,575.0 C810.0,575.0 870.0,600.0 940.0,600.0" fill="none" stroke="#55617a" stroke-width="1.72" opacity="0.85" marker-end="url(#arrow)"/>
<path d="M740.0,200.0 C810.0,200.0 870.0,200.0 940.0,200.0" fill="none" stroke="#55617a" stroke-width="2.58" opacity="0.85" marker-end="url(#arrow)"/>
<path d="M740.0,800.0 C810.0,800.0 870.0,700.0 940.0,700.0" fill="none" stroke="#55617a" stroke-width="2.19" opacity="0.85" marker-end="url(#arrow)"/>
<path d="M740.0,650.0 C810.0,650.0 870.0,700.0 940.0,700.0" fill="none" stroke="#55617a" stroke-width="1.72" opacity="0.85" marker-end="url(#arrow)"/>
<path d="M740.0,425.0 C810.0,425.0 870.0,700.0 940.0,700.0" fill="none" stroke="#55617a" stroke-width="1.66" opacity="0.85" marker-end="url(#arrow)"/>
<path d="M740.0,725.0 C810.0,725.0 870.0,700.0 940.0,700.0" fill="none" stroke="#55617a" stroke-width="1.67" opacity="0.85" marker-end="url(#arrow)"/>
<path d="M1060.0,200.0 C1116.0,200.0 1164.0,500.0 1220.0,500.0" fill="none" stroke="#5f6d85" stroke-width="2.58" opacity="0.85" marker-end="url(#arrow)"/>
<path d="M1060.0,800.0 C1116.0,800.0 1164.0,500.0 1220.0,500.0" fill="none" stroke="#5f6d85" stroke-width="2.02" opacity="0.85" marker-end="url(#arrow)"/>
<path d="M1060.0,800.0 C1116.0,800.0 1164.0,500.0 1220.0,500.0" fill="none" stroke="#5f6d85" stroke-width="1.71" opacity="0.85" marker-end="url(#arrow)"/>
<path d="M1060.0,300.0 C1116.0,300.0 1164.0,500.0 1220.0,500.0" fill="none" stroke="#5f6d85" stroke-width="2.58" opacity="0.85" marker-end="url(#arrow)"/>
<path d="M1060.0,800.0 C1116.0,800.0 1164.0,500.0 1220.0,500.0" fill="none" stroke="#5f6d85" stroke-width="1.70" opacity="0.85" marker-end="url(#arrow)"/>
<path d="M1060.0,800.0 C1116.0,800.0 1164.0,500.0 1220.0,500.0" fill="none" stroke="#5f6d85" stroke-width="1.92" opacity="0.85" marker-end="url(#arrow)"/>
<path d="M1060.0,800.0 C1116.0,800.0 1164.0,500.0 1220.0,500.0" fill="none" stroke="#5f6d85" stroke-width="1.71" opacity="0.85" marker-end="url(#arrow)"/>
<path d="M1060.0,400.0 C1116.0,400.0 1164.0,500.0 1220.0,500.0" fill="none" stroke="#5f6d85" stroke-width="2.58" opacity="0.85" marker-end="url(#arrow)"/>
<path d="M1060.0,800.0 C1116.0,800.0 1164.0,500.0 1220.0,500.0" fill="none" stroke="#5f6d85" stroke-width="1.97" opacity="0.85" marker-end="url(#arrow)"/>
<path d="M1060.0,800.0 C1116.0,800.0 1164.0,500.0 1220.0,500.0" fill="none" stroke="#5f6d85" stroke-width="1.65" opacity="0.85" marker-end="url(#arrow)"/>
<path d="M1060.0,800.0 C1116.0,800.0 1164.0,500.0 1220.0,500.0" fill="none" stroke="#5f6d85" stroke-width="1.71" opacity="0.85" marker-end="url(#arrow)"/>
<path d="M1060.0,500.0 C1116.0,500.0 1164.0,500.0 1220.0,500.0" fill="none" stroke="#5f6d85" stroke-width="2.58" opacity="0.85" marker-end="url(#arrow)"/>
<path d="M1060.0,800.0 C1116.0,800.0 1164.0,500.0 1220.0,500.0" fill="none" stroke="#5f6d85" stroke-width="1.97" opacity="0.85" marker-end="url(#arrow)"/>
<path d="M1060.0,800.0 C1116.0,800.0 1164.0,500.0 1220.0,500.0" fill="none" stroke="#5f6d85" stroke-width="1.65" opacity="0.85" marker-end="url(#arrow)"/>
<path d="M1060.0,800.0 C1116.0,800.0 1164.0,500.0 1220.0,500.0" fill="none" stroke="#5f6d85" stroke-width="1.60" opacity="0.85" marker-end="url(#arrow)"/>
<path d="M1060.0,800.0 C1116.0,800.0 1164.0,500.0 1220.0,500.0" fill="none" stroke="#5f6d85" stroke-width="1.71" opacity="0.85" marker-end="url(#arrow)"/>
<path d="M1060.0,600.0 C1116.0,600.0 1164.0,500.0 1220.0,500.0" fill="none" stroke="#5f6d85" stroke-width="2.44" opacity="0.85" marker-end="url(#arrow)"/>
<path d="M1060.0,800.0 C1116.0,800.0 1164.0,500.0 1220.0,500.0" fill="none" stroke="#5f6d85" stroke-width="1.75" opacity="0.85" marker-end="url(#arrow)"/>
<path d="M1060.0,800.0 C1116.0,800.0 1164.0,500.0 1220.0,500.0" fill="none" stroke="#5f6d85" stroke-width="2.02" opacity="0.85" marker-end="url(#arrow)"/>
<path d="M1060.0,800.0 C1116.0,800.0 1164.0,500.0 1220.0,500.0" fill="none" stroke="#5f6d85" stroke-width="1.71" opacity="0.85" marker-end="url(#arrow)"/>
<path d="M1060.0,800.0 C1116.0,800.0 1164.0,500.0 1220.0,500.0" fill="none" stroke="#5f6d85" stroke-width="1.60" opacity="0.85" marker-end="url(#arrow)"/>
<path d="M1060.0,700.0 C1116.0,700.0 1164.0,500.0 1220.0,500.0" fill="none" stroke="#5f6d85" stroke-width="2.44" opacity="0.85" marker-end="url(#arrow)"/>
<path d="M1060.0,800.0 C1116.0,800.0 1164.0,500.0 1220.0,500.0" fill="none" stroke="#5f6d85" stroke-width="1.65" opacity="0.85" marker-end="url(#arrow)"/>
<path d="M1060.0,800.0 C1116.0,800.0 1164.0,500.0 1220.0,500.0" fill="none" stroke="#5f6d85" stroke-width="2.12" opacity="0.85" marker-end="url(#arrow)"/>
<path d="M1060.0,800.0 C1116.0,800.0 1164.0,500.0 1220.0,500.0" fill="none" stroke="#5f6d85" stroke-width="1.71" opacity="0.85" marker-end="url(#arrow)"/>
<path d="M1060.0,800.0 C1116.0,800.0 1164.0,500.0 1220.0,500.0" fill="none" stroke="#5f6d85" stroke-width="1.60" opacity="0.85" marker-end="url(#arrow)"/>
<path d="M1060.0,800.0 C1116.0,800.0 1164.0,500.0 1220.0,500.0" fill="none" stroke="#5f6d85" stroke-width="2.40" opacity="0.85" marker-end="url(#arrow)"/>
<path d="M1060.0,800.0 C1116.0,800.0 1164.0,500.0 1220.0,500.0" fill="none" stroke="#5f6d85" stroke-width="1.63" opacity="0.85" marker-end="url(#arrow)"/>
<path d="M1060.0,800.0 C1116.0,800.0 1164.0,500.0 1220.0,500.0" fill="none" stroke="#5f6d85" stroke-width="1.65" opacity="0.85" marker-end="url(#arrow)"/>
<path d="M1060.0,800.0 C1116.0,800.0 1164.0,500.0 1220.0,500.0" fill="none" stroke="#5f6d85" stroke-width="2.12" opacity="0.85" marker-end="url(#arrow)"/>
<path d="M1060.0,800.0 C1116.0,800.0 1164.0,500.0 1220.0,500.0" fill="none" stroke="#5f6d85" stroke-width="1.67" opacity="0.85" marker-end="url(#arrow)"/>
<path d="M1060.0,800.0 C1116.0,800.0 1164.0,500.0 1220.0,500.0" fill="none" stroke="#5f6d85" stroke-width="1.64" opacity="0.85" marker-end="url(#arrow)"/>
<path d="M1060.0,800.0 C1116.0,800.0 1164.0,500.0 1220.0,500.0" fill="none" stroke="#5f6d85" stroke-width="1.60" opacity="0.85" marker-end="url(#arrow)"/>
<path d="M1060.0,800.0 C1116.0,800.0 1164.0,500.0 1220.0,500.0" fill="none" stroke="#5f6d85" stroke-width="1.66" opacity="0.85" marker-end="url(#arrow)"/>
<path d="M1060.0,800.0 C1116.0,800.0 1164.0,500.0 1220.0,500.0" fill="none" stroke="#5f6d85" stroke-width="2.42" opacity="0.85" marker-end="url(#arrow)"/>
<path d="M1060.0,800.0 C1116.0,800.0 1164.0,500.0 1220.0,500.0" fill="none" stroke="#5f6d85" stroke-width="1.90" opacity="0.85" marker-end="url(#arrow)"/>
<path d="M1060.0,800.0 C1116.0,800.0 1164.0,500.0 1220.0,500.0" fill="none" stroke="#5f6d85" stroke-width="1.82" opacity="0.85" marker-end="url(#arrow)"/>
<path d="M1060.0,800.0 C1116.0,800.0 1164.0,500.0 1220.0,500.0" fill="none" stroke="#5f6d85" stroke-width="1.71" opacity="0.85" marker-end="url(#arrow)"/>
<path d="M1060.0,800.0 C1116.0,800.0 1164.0,500.0 1220.0,500.0" fill="none" stroke="#5f6d85" stroke-width="1.60" opacity="0.85" marker-end="url(#arrow)"/>
<path d="M1060.0,800.0 C1116.0,800.0 1164.0,500.0 1220.0,500.0" fill="none" stroke="#5f6d85" stroke-width="1.66" opacity="0.85" marker-end="url(#arrow)"/>
<path d="M180.0,500.0 C222.0,500.0 258.0,725.0 300.0,725.0" fill="none" stroke="#00e0ff" stroke-width="5" opacity="0.95" filter="url(#softGlow)" marker-end="url(#arrowBright)"/>
<path d="M300.0,725.0 C342.0,725.0 378.0,725.0 420.0,725.0" fill="none" stroke="#00e0ff" stroke-width="5" opacity="0.95" filter="url(#softGlow)" marker-end="url(#arrowBright)"/>
<path d="M420.0,725.0 C490.0,725.0 550.0,800.0 620.0,800.0" fill="none" stroke="#00e0ff" stroke-width="5" opacity="0.95" filter="url(#softGlow)" marker-end="url(#arrowBright)"/>
<path d="M620.0,800.0 C662.0,800.0 698.0,800.0 740.0,800.0" fill="none" stroke="#00e0ff" stroke-width="5" opacity="0.95" filter="url(#softGlow)" marker-end="url(#arrowBright)"/>
<path d="M740.0,800.0 C810.0,800.0 870.0,800.0 940.0,800.0" fill="none" stroke="#00e0ff" stroke-width="5" opacity="0.95" filter="url(#softGlow)" marker-end="url(#arrowBright)"/>
<path d="M940.0,800.0 C982.0,800.0 1018.0,800.0 1060.0,800.0" fill="none" stroke="#00e0ff" stroke-width="5" opacity="0.95" filter="url(#softGlow)" marker-end="url(#arrowBright)"/>
<path d="M1060.0,800.0 C1116.0,800.0 1164.0,500.0 1220.0,500.0" fill="none" stroke="#00e0ff" stroke-width="5" opacity="0.95" filter="url(#softGlow)" marker-end="url(#arrowBright)"/>
<path d="M1220.0,500.0 C1276.0,500.0 1324.0,500.0 1380.0,500.0" fill="none" stroke="#00e0ff" stroke-width="5" opacity="0.95" filter="url(#softGlow)" marker-end="url(#arrowBright)"/>
<circle cx="1220.0" cy="500.0" r="34" fill="none" stroke="#00e0ff" stroke-width="2" opacity="0.6" filter="url(#softGlow)"/>
<g class="node" transform="translate(120.0,500.0)"><circle cx="0" cy="0" r="40" fill="url(#nodeGlow)" stroke="#8a93a6" stroke-width="1.2"/><circle cx="0" cy="0" r="28" fill="#0f1a2e" stroke="#2c3650" stroke-width="2"/><text class="label" x="0" y="56" text-anchor="middle" font-size="13">Tojás</text><text class="label" x="0" y="72" text-anchor="middle" font-size="12" opacity="0.75">886 051 db</text></g>
<g class="node" transform="translate(360.0,200.0)"><circle cx="0" cy="0" r="40" fill="url(#nodeGlow)" stroke="#8a93a6" stroke-width="1.2"/><circle cx="0" cy="0" r="28" fill="#0f1a2e" stroke="#2c3650" stroke-width="2"/><text class="label" x="0" y="56" text-anchor="middle" font-size="13">Előkeltető 05</text><text class="label" x="0" y="72" text-anchor="middle" font-size="12" opacity="0.75">129 736 db</text></g>
<g class="node" transform="translate(360.0,275.0)"><circle cx="0" cy="0" r="40" fill="url(#nodeGlow)" stroke="#8a93a6" stroke-width="1.2"/><circle cx="0" cy="0" r="28" fill="#0f1a2e" stroke="#2c3650" stroke-width="2"/><text class="label" x="0" y="56" text-anchor="middle" font-size="13">Előkeltető 47</text><text class="label" x="0" y="72" text-anchor="middle" font-size="12" opacity="0.75">119 974 db</text></g>
<g class="node" transform="translate(360.0,350.0)"><circle cx="0" cy="0" r="40" fill="url(#nodeGlow)" stroke="#8a93a6" stroke-width="1.2"/><circle cx="0" cy="0" r="28" fill="#0f1a2e" stroke="#2c3650" stroke-width="2"/><text class="label" x="0" y="56" text-anchor="middle" font-size="13">Előkeltető 04</text><text class="label" x="0" y="72" text-anchor="middle" font-size="12" opacity="0.75">79 552 db</text></g>
<g class="node" transform="translate(360.0,425.0)"><circle cx="0" cy="0" r="40" fill="url(#nodeGlow)" stroke="#8a93a6" stroke-width="1.2"/><circle cx="0" cy="0" r="28" fill="#0f1a2e" stroke="#2c3650" stroke-width="2"/><text class="label" x="0" y="56" text-anchor="middle" font-size="13">Előkeltető 27</text><text class="label" x="0" y="72" text-anchor="middle" font-size="12" opacity="0.75">46 981 db</text></g>
<g class="node" transform="translate(360.0,500.0)"><circle cx="0" cy="0" r="40" fill="url(#nodeGlow)" stroke="#8a93a6" stroke-width="1.2"/><circle cx="0" cy="0" r="28" fill="#0f1a2e" stroke="#2c3650" stroke-width="2"/><text class="label" x="0" y="56" text-anchor="middle" font-size="13">Előkeltető 20</text><text class="label" x="0" y="72" text-anchor="middle" font-size="12" opacity="0.75">45 789 db</text></g>
<g class="node" transform="translate(360.0,575.0)"><circle cx="0" cy="0" r="40" fill="url(#nodeGlow)" stroke="#8a93a6" stroke-width="1.2"/><circle cx="0" cy="0" r="28" fill="#0f1a2e" stroke="#2c3650" stroke-width="2"/><text class="label" x="0" y="56" text-anchor="middle" font-size="13">Előkeltető 48</text><text class="label" x="0" y="72" text-anchor="middle" font-size="12" opacity="0.75">41 326 db</text></g>
<g class="node" transform="translate(360.0,650.0)"><circle cx="0" cy="0" r="40" fill="url(#nodeGlow)" stroke="#8a93a6" stroke-width="1.2"/><circle cx="0" cy="0" r="28" fill="#0f1a2e" stroke="#2c3650" stroke-width="2"/><text class="label" x="0" y="56" text-anchor="middle" font-size="13">Előkeltető 16</text><text class="label" x="0" y="72" text-anchor="middle" font-size="12" opacity="0.75">36 513 db</text></g>
<g class="node" transform="translate(360.0,725.0)"><circle cx="0" cy="0" r="40" fill="url(#nodeGlow)" stroke="#8a93a6" stroke-width="1.2"/><circle cx="0" cy="0" r="28" fill="#0f1a2e" stroke="#2c3650" stroke-width="2"/><text class="label" x="0" y="56" text-anchor="middle" font-size="13">Előkeltető 31</text><text class="label" x="0" y="72" text-anchor="middle" font-size="12" opacity="0.75">34 354 db</text></g>
<g class="node" transform="translate(360.0,800.0)"><circle cx="0" cy="0" r="40" fill="url(#nodeGlow)" stroke="#8a93a6" stroke-width="1.2"/><circle cx="0" cy="0" r="28" fill="#0f1a2e" stroke="#2c3650" stroke-width="2"/><text class="label" x="0" y="56" text-anchor="middle" font-size="13">Egyéb előkeltetők (37)</text><text class="label" x="0" y="72" text-anchor="middle" font-size="12" opacity="0.75">351 827 db</text></g>
<g class="node" transform="translate(680.0,200.0)"><circle cx="0" cy="0" r="40" fill="url(#nodeGlow)" stroke="#8a93a6" stroke-width="1.2"/><circle cx="0" cy="0" r="28" fill="#0f1a2e" stroke="#2c3650" stroke-width="2"/><text class="label" x="0" y="56" text-anchor="middle" font-size="13">Utókeltető 05</text><text class="label" x="0" y="72" text-anchor="middle" font-size="12" opacity="0.75">78 179 db</text></g>
<g class="node" transform="translate(680.0,275.0)"><circle cx="0" cy="0" r="40" fill="url(#nodeGlow)" stroke="#8a93a6" stroke-width="1.2"/><circle cx="0" cy="0" r="28" fill="#0f1a2e" stroke="#2c3650" stroke-width="2"/><text class="label" x="0" y="56" text-anchor="middle" font-size="13">Utókeltető 07</text><text class="label" x="0" y="72" text-anchor="middle" font-size="12" opacity="0.75">23 978 db</text></g>
<g class="node" transform="translate(680.0,350.0)"><circle cx="0" cy="0" r="40" fill="url(#nodeGlow)" stroke="#8a93a6" stroke-width="1.2"/><circle cx="0" cy="0" r="28" fill="#0f1a2e" stroke="#2c3650" stroke-width="2"/><text class="label" x="0" y="56" text-anchor="middle" font-size="13">Utókeltető 29</text><text class="label" x="0" y="72" text-anchor="middle" font-size="12" opacity="0.75">23 535 db</text></g>
<g class="node" transform="translate(680.0,425.0)"><circle cx="0" cy="0" r="40" fill="url(#nodeGlow)" stroke="#8a93a6" stroke-width="1.2"/><circle cx="0" cy="0" r="28" fill="#0f1a2e" stroke="#2c3650" stroke-width="2"/><text class="label" x="0" y="56" text-anchor="middle" font-size="13">Utókeltető 48</text><text class="label" x="0" y="72" text-anchor="middle" font-size="12" opacity="0.75">21 398 db</text></g>
<g class="node" transform="translate(680.0,500.0)"><circle cx="0" cy="0" r="40" fill="url(#nodeGlow)" stroke="#8a93a6" stroke-width="1.2"/><circle cx="0" cy="0" r="28" fill="#0f1a2e" stroke="#2c3650" stroke-width="2"/><text class="label" x="0" y="56" text-anchor="middle" font-size="13">Utókeltető 22</text><text class="label" x="0" y="72" text-anchor="middle" font-size="12" opacity="0.75">21 122 db</text></g>
<g class="node" transform="translate(680.0,575.0)"><circle cx="0" cy="0" r="40" fill="url(#nodeGlow)" stroke="#8a93a6" stroke-width="1.2"/><circle cx="0" cy="0" r="28" fill="#0f1a2e" stroke="#2c3650" stroke-width="2"/><text class="label" x="0" y="56" text-anchor="middle" font-size="13">Utókeltető 08</text><text class="label" x="0" y="72" text-anchor="middle" font-size="12" opacity="0.75">20 763 db</text></g>
<g class="node" transform="translate(680.0,650.0)"><circle cx="0" cy="0" r="40" fill="url(#nodeGlow)" stroke="#8a93a6" stroke-width="1.2"/><circle cx="0" cy="0" r="28" fill="#0f1a2e" stroke="#2c3650" stroke-width="2"/><text class="label" x="0" y="56" text-anchor="middle" font-size="13">Utókeltető 50</text><text class="label" x="0" y="72" text-anchor="middle" font-size="12" opacity="0.75">20 344 db</text></g>
<g class="node" transform="translate(680.0,725.0)"><circle cx="0" cy="0" r="40" fill="url(#nodeGlow)" stroke="#8a93a6" stroke-width="1.2"/><circle cx="0" cy="0" r="28" fill="#0f1a2e" stroke="#2c3650" stroke-width="2"/><text class="label" x="0" y="56" text-anchor="middle" font-size="13">Utókeltető 44</text><text class="label" x="0" y="72" text-anchor="middle" font-size="12" opacity="0.75">19 231 db</text></g>
<g class="node" transform="translate(680.0,800.0)"><circle cx="0" cy="0" r="40" fill="url(#nodeGlow)" stroke="#8a93a6" stroke-width="1.2"/><circle cx="0" cy="0" r="28" fill="#0f1a2e" stroke="#2c3650" stroke-width="2"/><text class="label" x="0" y="56" text-anchor="middle" font-size="13">Egyéb utókeltetők (48)</text><text class="label" x="0" y="72" text-anchor="middle" font-size="12" opacity="0.75">485 573 db</text></g>
<g class="node" transform="translate(1000.0,200.0)"><circle cx="0" cy="0" r="40" fill="url(#nodeGlow)" stroke="#8a93a6" stroke-width="1.2"/><circle cx="0" cy="0" r="28" fill="#0f1a2e" stroke="#2c3650" stroke-width="2"/><text class="label" x="0" y="56" text-anchor="middle" font-size="13">Kamion 01</text><text class="label" x="0" y="72" text-anchor="middle" font-size="12" opacity="0.75">57 600 db</text></g>
<g class="node" transform="translate(1000.0,300.0)"><circle cx="0" cy="0" r="40" fill="url(#nodeGlow)" stroke="#8a93a6" stroke-width="1.2"/><circle cx="0" cy="0" r="28" fill="#0f1a2e" stroke="#2c3650" stroke-width="2"/><text class="label" x="0" y="56" text-anchor="middle" font-size="13">Kamion 01</text><text class="label" x="0" y="72" text-anchor="middle" font-size="12" opacity="0.75">57 600 db</text></g>
<g class="node" transform="translate(1000.0,400.0)"><circle cx="0" cy="0" r="40" fill="url(#nodeGlow)" stroke="#8a93a6" stroke-width="1.2"/><circle cx="0" cy="0" r="28" fill="#0f1a2e" stroke="#2c3650" stroke-width="2"/><text class="label" x="0" y="56" text-anchor="middle" font-size="13">Kamion 01</text><text class="label" x="0" y="72" text-anchor="middle" font-size="12" opacity="0.75">57 600 db</text></g>
<g class="node" transform="translate(1000.0,500.0)"><circle cx="0" cy="0" r="40" fill="url(#nodeGlow)" stroke="#8a93a6" stroke-width="1.2"/><circle cx="0" cy="0" r="28" fill="#0f1a2e" stroke="#2c3650" stroke-width="2"/><text class="label" x="0" y="56" text-anchor="middle" font-size="13">Kamion 01</text><text class="label" x="0" y="72" text-anchor="middle" font-size="12" opacity="0.75">57 600 db</text></g>
<g class="node" transform="translate(1000.0,600.0)"><circle cx="0" cy="0" r="40" fill="url(#nodeGlow)" stroke="#8a93a6" stroke-width="1.2"/><circle cx="0" cy="0" r="28" fill="#0f1a2e" stroke="#2c3650" stroke-width="2"/><text class="label" x="0" y="56" text-anchor="middle" font-size="13">Kamion 01</text><text class="label" x="0" y="72" text-anchor="middle" font-size="12" opacity="0.75">48 991 db</text></g>
<g class="node" transform="translate(1000.0,700.0)"><circle cx="0" cy="0" r="40" fill="url(#nodeGlow)" stroke="#8a93a6" stroke-width="1.2"/><circle cx="0" cy="0" r="28" fill="#0f1a2e" stroke="#2c3650" stroke-width="2"/><text class="label" x="0" y="56" text-anchor="middle" font-size="13">Kamion 01</text><text class="label" x="0" y="72" text-anchor="middle" font-size="12" opacity="0.75">48 991 db</text></g>
<g class="node" transform="translate(1000.0,800.0)"><circle cx="0" cy="0" r="40" fill="url(#nodeGlow)" stroke="#8a93a6" stroke-width="1.2"/><circle cx="0" cy="0" r="28" fill="#0f1a2e" stroke="#2c3650" stroke-width="2"/><text class="label" x="0" y="56" text-anchor="middle" font-size="13">Egyéb kamionok (34)</text><text class="label" x="0" y="72" text-anchor="middle" font-size="12" opacity="0.75">385 740 db</text></g>
<g class="node" transform="translate(1280.0,500.0)"><circle cx="0" cy="0" r="40" fill="url(#nodeGlow)" stroke="#8a93a6" stroke-width="1.2"/><circle cx="0" cy="0" r="28" fill="#0f1a2e" stroke="#2c3650" stroke-width="2"/><text class="label" x="0" y="56" text-anchor="middle" font-size="13">Kaba-barn-01</text><text class="label" x="0" y="72" text-anchor="middle" font-size="12" opacity="0.75">88 800 db</text></g>
<text class="label" x="80" y="72" font-size="24" fill="#f2f5ff" opacity="0.95">Kaba-barn-01 · 2025-12-24</text>
<g transform="translate(60,820)">
    <circle cx="0" cy="0" r="6" fill="#00e0ff"/>
    <text class="label" x="14" y="5" font-size="14">Kiemelt élő batch útvonala</text>
    <line x1="0" y1="30" x2="70" y2="30" stroke="#3b4556" stroke-width="3"/>
    <text class="label" x="82" y="35" font-size="14">Aggregált anyagáram</text>
    <rect x="-10" y="52" width="24" height="14" rx="3" ry="3" fill="#0e172a" stroke="#2a3450" stroke-width="1.5" stroke-dasharray="6 6"/>
    <text class="label" x="20" y="63" font-size="14">Csoport kerete</text>
</g>

<g transform="translate(1400.0,380.0)"><text class="label" x="0" y="0" font-size="15" opacity="0.85">Istálló állapotváltozásai</text><text class="label" x="0" y="24" font-size="13" opacity="0.75">2025-12-03 05:46 +12849 shipment-871 · shipment-871-truck-02</text><text class="label" x="0" y="44" font-size="13" opacity="0.75">2025-12-07 15:18 -4075 shipment-777</text><text class="label" x="0" y="64" font-size="13" opacity="0.75">2025-12-09 12:45 -2539 shipment-787</text><text class="label" x="0" y="84" font-size="13" opacity="0.75">2025-12-13 08:32 +6614 shipment-892 · shipment-892-truck-01</text><text class="label" x="0" y="104" font-size="13" opacity="0.75">2025-12-21 09:58 -105 shipment-800</text><text class="label" x="0" y="124" font-size="13" opacity="0.75">2025-12-21 09:59 +105 shipment-923 · shipment-923-truck-02</text><text class="label" x="0" y="144" font-size="13" opacity="0.75">2025-12-23 22:08 -3722 shipment-815</text><text class="label" x="0" y="164" font-size="13" opacity="0.75">2025-12-24 07:23 +3722 shipment-935 · shipment-935-truck-02</text></g>
</svg>