<?xml version="1.0" encoding="UTF-8" standalone="no"?>
<svg xmlns="http://www.w3.org/2000/svg" width="1600" height="1000" viewBox="0 0 1600 1000" style="background:#0b1220">
<defs>
            <radialGradient id="nodeGlow" cx="50%" cy="50%" r="60%">
                <stop offset="0%" stop-color="#ffffff" stop-opacity="0.15"/>
                <stop offset="100%" stop-color="#00ddeb" stop-opacity="0.08"/>
            </radialGradient>
            <filter id="softGlow" x="-50%" y="-50%" width="200%" height="200%">
                <feGaussianBlur stdDeviation="6" result="blur"/>
                <feMerge><feMergeNode in="blur"/><feMergeNode in="SourceGraphic"/></feMerge>
            </filter>
            <marker id="arrow" markerWidth="8" markerHeight="8" refX="6" refY="3" orient="auto">
                <path d="M0,0 L6,3 L0,6 Z" fill="#9aa4b2" />
            </marker>
            <marker id="arrowBright" markerWidth="10" markerHeight="10" refX="7" refY="5" orient="auto">
                <path d="M0,0 L9,5 L0,10 Z" fill="#00e0ff" />
            </marker>
            <style>
                .label { font-family: Inter, system-ui, -apple-system, Segoe UI, Roboto; fill:#c8cfdb; }
            </style>
        </defs>
<g class="group" id="group-parent"><rect x="10.0" y="340.0" width="220.0" height="320.0" rx="18" ry="18" fill="#0e172a" stroke="#2a3450" stroke-width="1.5" stroke-dasharray="6 6"/><text class="label" x="120.0" y="324.0" text-anchor="middle" font-size="15" opacity="0.9">Tojásfarmok / szülőpárok</text></g>
<g class="group" id="group-setter"><rect x="250.0" y="200.0" width="220.0" height="600.0" rx="18" ry="18" fill="#0e172a" stroke="#2a3450" stroke-width="1.5" stroke-dasharray="6 6"/><text class="label" x="360.0" y="184.0" text-anchor="middle" font-size="15" opacity="0.9">Előkeltetők</text></g>
<g class="group" id="group-hatcher"><rect x="570.0" y="110.0" width="220.0" height="780.0" rx="18" ry="18" fill="#0e172a" stroke="#2a3450" stroke-width="1.5" stroke-dasharray="6 6"/><text class="label" x="680.0" y="94.0" text-anchor="middle" font-size="15" opacity="0.9">Utókeltetők</text></g>
<g class="group" id="group-truck"><rect x="890.0" y="340.0" width="220.0" height="320.0" rx="18" ry="18" fill="#0e172a" stroke="#2a3450" stroke-width="1.5" stroke-dasharray="6 6"/><text class="label" x="1000.0" y="324.0" text-anchor="middle" font-size="15" opacity="0.9">Szállítás</text></g>
<g class="group" id="group-barn"><rect x="1170.0" y="410.0" width="220.0" height="180.0" rx="18" ry="18" fill="#0e172a" stroke="#2a3450" stroke-width="1.5" stroke-dasharray="6 6"/><text class="label" x="1280.0" y="394.0" text-anchor="middle" font-size="15" opacity="0.9">Cél istálló</text></g>
<path d="M168.0,430.0 C218.4,430.0 261.6,430.0 312.0,430.0" fill="none" stroke="#3b4556" stroke-width="5.41" opacity="0.75" marker-end="url(#arrow)"/>
<path d="M168.0,430.0 C218.4,430.0 261.6,290.0 312.0,290.0" fill="none" stroke="#3b4556" stroke-width="6.95" opacity="0.75" marker-end="url(#arrow)"/>
<path d="M168.0,570.0 C218.4,570.0 261.6,710.0 312.0,710.0" fill="none" stroke="#3b4556" stroke-width="3.44" opacity="0.75" marker-end="url(#arrow)"/>
<path d="M168.0,570.0 C218.4,570.0 261.6,570.0 312.0,570.0" fill="none" stroke="#3b4556" stroke-width="4.27" opacity="0.75" marker-end="url(#arrow)"/>
<path d="M408.0,430.0 C486.4,430.0 553.6,285.7 632.0,285.7" fill="none" stroke="#4b566a" stroke-width="4.53" opacity="0.75" marker-end="url(#arrow)"/>
<path d="M408.0,290.0 C486.4,290.0 553.6,200.0 632.0,200.0" fill="none" stroke="#4b566a" stroke-width="5.87" opacity="0.75" marker-end="url(#arrow)"/>
<path d="M408.0,710.0 C486.4,710.0 553.6,800.0 632.0,800.0" fill="none" stroke="#4b566a" stroke-width="1.51" opacity="0.75" marker-end="url(#arrow)"/>
<path d="M408.0,710.0 C486.4,710.0 553.6,371.4 632.0,371.4" fill="none" stroke="#4b566a" stroke-width="1.80" opacity="0.75" marker-end="url(#arrow)"/>
<path d="M408.0,710.0 C486.4,710.0 553.6,542.9 632.0,542.9" fill="none" stroke="#4b566a" stroke-width="1.51" opacity="0.75" marker-end="url(#arrow)"/>
<path d="M408.0,710.0 C486.4,710.0 553.6,714.3 632.0,714.3" fill="none" stroke="#4b566a" stroke-width="1.50" opacity="0.75" marker-end="url(#arrow)"/>
<path d="M408.0,710.0 C486.4,710.0 553.6,628.6 632.0,628.6" fill="none" stroke="#4b566a" stroke-width="1.50" opacity="0.75" marker-end="url(#arrow)"/>
<path d="M408.0,570.0 C486.4,570.0 553.6,542.9 632.0,542.9" fill="none" stroke="#4b566a" stroke-width="1.52" opacity="0.75" marker-end="url(#arrow)"/>
<path d="M408.0,570.0 C486.4,570.0 553.6,457.1 632.0,457.1" fill="none" stroke="#4b566a" stroke-width="1.88" opacity="0.75" marker-end="url(#arrow)"/>
<path d="M408.0,570.0 C486.4,570.0 553.6,714.3 632.0,714.3" fill="none" stroke="#4b566a" stroke-width="1.51" opacity="0.75" marker-end="url(#arrow)"/>
<path d="M408.0,570.0 C486.4,570.0 553.6,628.6 632.0,628.6" fill="none" stroke="#4b566a" stroke-width="1.51" opacity="0.75" marker-end="url(#arrow)"/>
<path d="M408.0,570.0 C486.4,570.0 553.6,371.4 632.0,371.4" fill="none" stroke="#4b566a" stroke-width="1.78" opacity="0.75" marker-end="url(#arrow)"/>
<path d="M408.0,570.0 C486.4,570.0 553.6,200.0 632.0,200.0" fill="none" stroke="#4b566a" stroke-width="1.51" opacity="0.75" marker-end="url(#arrow)"/>
<path d="M728.0,285.7 C806.4,285.7 873.6,430.0 952.0,430.0" fill="none" stroke="#55617a" stroke-width="4.53" opacity="0.85" marker-end="url(#arrow)"/>
<path d="M728.0,200.0 C806.4,200.0 873.6,430.0 952.0,430.0" fill="none" stroke="#55617a" stroke-width="5.87" opacity="0.85" marker-end="url(#arrow)"/>
<path d="M728.0,800.0 C806.4,800.0 873.6,570.0 952.0,570.0" fill="none" stroke="#55617a" stroke-width="1.51" opacity="0.85" marker-end="url(#arrow)"/>
<path d="M728.0,371.4 C806.4,371.4 873.6,570.0 952.0,570.0" fill="none" stroke="#55617a" stroke-width="2.38" opacity="0.85" marker-end="url(#arrow)"/>
<path d="M728.0,542.9 C806.4,542.9 873.6,570.0 952.0,570.0" fill="none" stroke="#55617a" stroke-width="1.82" opacity="0.85" marker-end="url(#arrow)"/>
<path d="M728.0,714.3 C806.4,714.3 873.6,570.0 952.0,570.0" fill="none" stroke="#55617a" stroke-width="1.81" opacity="0.85" marker-end="url(#arrow)"/>
<path d="M728.0,628.6 C806.4,628.6 873.6,570.0 952.0,570.0" fill="none" stroke="#55617a" stroke-width="1.82" opacity="0.85" marker-end="url(#arrow)"/>
<path d="M728.0,457.1 C806.4,457.1 873.6,570.0 952.0,570.0" fill="none" stroke="#55617a" stroke-width="1.88" opacity="0.85" marker-end="url(#arrow)"/>
<path d="M728.0,200.0 C806.4,200.0 873.6,570.0 952.0,570.0" fill="none" stroke="#55617a" stroke-width="1.51" opacity="0.85" marker-end="url(#arrow)"/>
<path d="M1048.0,430.0 C1112.4,430.0 1167.6,500.0 1232.0,500.0" fill="none" stroke="#5f6d85" stroke-width="9.20" opacity="0.85" marker-end="url(#arrow)"/>
<path d="M1048.0,570.0 C1112.4,570.0 1167.6,500.0 1232.0,500.0" fill="none" stroke="#5f6d85" stroke-width="5.53" opacity="0.85" marker-end="url(#arrow)"/>
<g class="node" transform="translate(120.0,430.0)"><rect x="-24.0" y="-24.0" width="48" height="48" rx="10" ry="10" fill="url(#nodeGlow)" stroke="#8a93a6" stroke-width="1.2"/><rect x="-17.0" y="-17.0" width="34" height="34" rx="8" ry="8" fill="#0f1a2e" stroke="#2c3650" stroke-width="2"/><text class="label" x="0" y="40.0" text-anchor="middle" font-size="14" fill="#e6f0ff">Szülőpár 09</text><text class="label" x="0" y="56.0" text-anchor="middle" font-size="12" opacity="0.85">71 692 db</text></g>
<g class="node" transform="translate(120.0,570.0)"><rect x="-24.0" y="-24.0" width="48" height="48" rx="10" ry="10" fill="url(#nodeGlow)" stroke="#8a93a6" stroke-width="1.2"/><rect x="-17.0" y="-17.0" width="34" height="34" rx="8" ry="8" fill="#0f1a2e" stroke="#2c3650" stroke-width="2"/><text class="label" x="0" y="40.0" text-anchor="middle" font-size="14" fill="#e6f0ff">Szülőpár 06</text><text class="label" x="0" y="56.0" text-anchor="middle" font-size="12" opacity="0.85">38 210 db</text></g>
<g class="node" transform="translate(360.0,290.0)"><rect x="-24.0" y="-24.0" width="48" height="48" rx="10" ry="10" fill="url(#nodeGlow)" stroke="#8a93a6" stroke-width="1.2"/><rect x="-17.0" y="-17.0" width="34" height="34" rx="8" ry="8" fill="#0f1a2e" stroke="#2c3650" stroke-width="2"/><text class="label" x="0" y="40.0" text-anchor="middle" font-size="14" fill="#e6f0ff">Előkeltető 08</text><text class="label" x="0" y="56.0" text-anchor="middle" font-size="12" opacity="0.85">41 409 db</text></g>
<g class="node" transform="translate(360.0,430.0)"><rect x="-24.0" y="-24.0" width="48" height="48" rx="10" ry="10" fill="url(#nodeGlow)" stroke="#8a93a6" stroke-width="1.2"/><rect x="-17.0" y="-17.0" width="34" height="34" rx="8" ry="8" fill="#0f1a2e" stroke="#2c3650" stroke-width="2"/><text class="label" x="0" y="40.0" text-anchor="middle" font-size="14" fill="#e6f0ff">Előkeltető 07</text><text class="label" x="0" y="56.0" text-anchor="middle" font-size="12" opacity="0.85">30 283 db</text></g>
<g class="node" transform="translate(360.0,570.0)"><rect x="-24.0" y="-24.0" width="48" height="48" rx="10" ry="10" fill="url(#nodeGlow)" stroke="#8a93a6" stroke-width="1.2"/><rect x="-17.0" y="-17.0" width="34" height="34" rx="8" ry="8" fill="#0f1a2e" stroke="#2c3650" stroke-width="2"/><text class="label" x="0" y="40.0" text-anchor="middle" font-size="14" fill="#e6f0ff">Előkeltető 12</text><text class="label" x="0" y="56.0" text-anchor="middle" font-size="12" opacity="0.85">22 070 db</text></g>
<g class="node" transform="translate(360.0,710.0)"><rect x="-24.0" y="-24.0" width="48" height="48" rx="10" ry="10" fill="url(#nodeGlow)" stroke="#8a93a6" stroke-width="1.2"/><rect x="-17.0" y="-17.0" width="34" height="34" rx="8" ry="8" fill="#0f1a2e" stroke="#2c3650" stroke-width="2"/><text class="label" x="0" y="40.0" text-anchor="middle" font-size="14" fill="#e6f0ff">Előkeltető 11</text><text class="label" x="0" y="56.0" text-anchor="middle" font-size="12" opacity="0.85">16 140 db</text></g>
<g class="node" transform="translate(680.0,200.0)"><rect x="-24.0" y="-24.0" width="48" height="48" rx="10" ry="10" fill="url(#nodeGlow)" stroke="#8a93a6" stroke-width="1.2"/><rect x="-17.0" y="-17.0" width="34" height="34" rx="8" ry="8" fill="#0f1a2e" stroke="#2c3650" stroke-width="2"/><text class="label" x="0" y="40.0" text-anchor="middle" font-size="14" fill="#e6f0ff">Utókeltető 08</text><text class="label" x="0" y="56.0" text-anchor="middle" font-size="12" opacity="0.85">35 868 db</text></g>
<g class="node" transform="translate(680.0,285.7)"><rect x="-24.0" y="-24.0" width="48" height="48" rx="10" ry="10" fill="url(#nodeGlow)" stroke="#8a93a6" stroke-width="1.2"/><rect x="-17.0" y="-17.0" width="34" height="34" rx="8" ry="8" fill="#0f1a2e" stroke="#2c3650" stroke-width="2"/><text class="label" x="0" y="40.0" text-anchor="middle" font-size="14" fill="#e6f0ff">Utókeltető 07</text><text class="label" x="0" y="56.0" text-anchor="middle" font-size="12" opacity="0.85">23 989 db</text></g>
<g class="node" transform="translate(680.0,371.4)"><rect x="-24.0" y="-24.0" width="48" height="48" rx="10" ry="10" fill="url(#nodeGlow)" stroke="#8a93a6" stroke-width="1.2"/><rect x="-17.0" y="-17.0" width="34" height="34" rx="8" ry="8" fill="#0f1a2e" stroke="#2c3650" stroke-width="2"/><text class="label" x="0" y="40.0" text-anchor="middle" font-size="14" fill="#e6f0ff">Utókeltető 11</text><text class="label" x="0" y="56.0" text-anchor="middle" font-size="12" opacity="0.85">8 466 db</text></g>
<g class="node" transform="translate(680.0,457.1)"><rect x="-24.0" y="-24.0" width="48" height="48" rx="10" ry="10" fill="url(#nodeGlow)" stroke="#8a93a6" stroke-width="1.2"/><rect x="-17.0" y="-17.0" width="34" height="34" rx="8" ry="8" fill="#0f1a2e" stroke="#2c3650" stroke-width="2"/><text class="label" x="0" y="40.0" text-anchor="middle" font-size="14" fill="#e6f0ff">Utókeltető 14</text><text class="label" x="0" y="56.0" text-anchor="middle" font-size="12" opacity="0.85">4 885 db</text></g>
<g class="node" transform="translate(680.0,542.9)"><rect x="-24.0" y="-24.0" width="48" height="48" rx="10" ry="10" fill="url(#nodeGlow)" stroke="#8a93a6" stroke-width="1.2"/><rect x="-17.0" y="-17.0" width="34" height="34" rx="8" ry="8" fill="#0f1a2e" stroke="#2c3650" stroke-width="2"/><text class="label" x="0" y="40.0" text-anchor="middle" font-size="14" fill="#e6f0ff">Utókeltető 09</text><text class="label" x="0" y="56.0" text-anchor="middle" font-size="12" opacity="0.85">4 494 db</text></g>
<g class="node" transform="translate(680.0,628.6)"><rect x="-24.0" y="-24.0" width="48" height="48" rx="10" ry="10" fill="url(#nodeGlow)" stroke="#8a93a6" stroke-width="1.2"/><rect x="-17.0" y="-17.0" width="34" height="34" rx="8" ry="8" fill="#0f1a2e" stroke="#2c3650" stroke-width="2"/><text class="label" x="0" y="40.0" text-anchor="middle" font-size="14" fill="#e6f0ff">Utókeltető 10</text><text class="label" x="0" y="56.0" text-anchor="middle" font-size="12" opacity="0.85">4 448 db</text></g>
<g class="node" transform="translate(680.0,714.3)"><rect x="-24.0" y="-24.0" width="48" height="48" rx="10" ry="10" fill="url(#nodeGlow)" stroke="#8a93a6" stroke-width="1.2"/><rect x="-17.0" y="-17.0" width="34" height="34" rx="8" ry="8" fill="#0f1a2e" stroke="#2c3650" stroke-width="2"/><text class="label" x="0" y="40.0" text-anchor="middle" font-size="14" fill="#e6f0ff">Utókeltető 13</text><text class="label" x="0" y="56.0" text-anchor="middle" font-size="12" opacity="0.85">4 417 db</text></g>
<g class="node" transform="translate(680.0,800.0)"><rect x="-24.0" y="-24.0" width="48" height="48" rx="10" ry="10" fill="url(#nodeGlow)" stroke="#8a93a6" stroke-width="1.2"/><rect x="-17.0" y="-17.0" width="34" height="34" rx="8" ry="8" fill="#0f1a2e" stroke="#2c3650" stroke-width="2"/><text class="label" x="0" y="40.0" text-anchor="middle" font-size="14" fill="#e6f0ff">Utókeltető 12</text><text class="label" x="0" y="56.0" text-anchor="middle" font-size="12" opacity="0.85">2 232 db</text></g>
<g class="node" transform="translate(1000.0,430.0)"><rect x="-24.0" y="-24.0" width="48" height="48" rx="10" ry="10" fill="url(#nodeGlow)" stroke="#8a93a6" stroke-width="1.2"/><rect x="-17.0" y="-17.0" width="34" height="34" rx="8" ry="8" fill="#0f1a2e" stroke="#2c3650" stroke-width="2"/><text class="label" x="0" y="40.0" text-anchor="middle" font-size="14" fill="#e6f0ff">Kamion 01</text><text class="label" x="0" y="56.0" text-anchor="middle" font-size="12" opacity="0.85">57 600 db</text></g>
<g class="node" transform="translate(1000.0,570.0)"><rect x="-24.0" y="-24.0" width="48" height="48" rx="10" ry="10" fill="url(#nodeGlow)" stroke="#8a93a6" stroke-width="1.2"/><rect x="-17.0" y="-17.0" width="34" height="34" rx="8" ry="8" fill="#0f1a2e" stroke="#2c3650" stroke-width="2"/><text class="label" x="0" y="40.0" text-anchor="middle" font-size="14" fill="#e6f0ff">Kamion 01</text><text class="label" x="0" y="56.0" text-anchor="middle" font-size="12" opacity="0.85">31 200 db</text></g>
<g class="node" transform="translate(1280.0,500.0)"><rect x="-24.0" y="-24.0" width="48" height="48" rx="10" ry="10" fill="url(#nodeGlow)" stroke="#8a93a6" stroke-width="1.2"/><rect x="-17.0" y="-17.0" width="34" height="34" rx="8" ry="8" fill="#0f1a2e" stroke="#2c3650" stroke-width="2"/><text class="label" x="0" y="40.0" text-anchor="middle" font-size="14" fill="#e6f0ff">Kaba-barn-05</text><text class="label" x="0" y="56.0" text-anchor="middle" font-size="12" opacity="0.85">88 800 db</text></g>
<text class="label" x="80" y="72" font-size="24" fill="#f2f5ff" opacity="0.95">Kaba-barn-05 · 2025-02-27</text>
<g transform="translate(60,820)">
    <circle cx="0" cy="0" r="6" fill="#00e0ff"/>
    <text class="label" x="14" y="5" font-size="14">Kiemelt élő batch útvonala</text>
    <line x1="0" y1="30" x2="70" y2="30" stroke="#3b4556" stroke-width="3"/>
    <text class="label" x="82" y="35" font-size="14">Aggregált anyagáram</text>
    <rect x="-10" y="52" width="24" height="14" rx="3" ry="3" fill="#0e172a" stroke="#2a3450" stroke-width="1.5" stroke-dasharray="6 6"/>
    <text class="label" x="20" y="63" font-size="14">Csoport kerete</text>
</g>

<g transform="translate(1400.0,380.0)"><text class="label" x="0" y="0" font-size="15" opacity="0.85">Istálló állapotváltozásai</text><text class="label" x="0" y="24" font-size="13" opacity="0.75">2025-02-01 16:06 +57600 shipment-8 · shipment-8-truck-01</text><text class="label" x="0" y="44" font-size="13" opacity="0.75">2025-02-27 03:00 +31200 shipment-80 · shipment-80-truck-01</text></g>
</svg>