<?xml version="1.0" encoding="UTF-8" standalone="no"?>
<svg xmlns="http://www.w3.org/2000/svg" width="1600" height="1000" viewBox="0 0 1600 1000" style="background:#0b1220">
<defs>
            <radialGradient id="nodeGlow" cx="50%" cy="50%" r="60%">
                <stop offset="0%" stop-color="#ffffff" stop-opacity="0.15"/>
                <stop offset="100%" stop-color="#00ddeb" stop-opacity="0.08"/>
            </radialGradient>
            <filter id="softGlow" x="-50%" y="-50%" width="200%" height="200%">
                <feGaussianBlur stdDeviation="6" result="blur"/>
                <feMerge><feMergeNode in="blur"/><feMergeNode in="SourceGraphic"/></feMerge>
            </filter>
            <marker id="arrow" markerWidth="8" markerHeight="8" refX="6" refY="3" orient="auto">
                <path d="M0,0 L6,3 L0,6 Z" fill="#9aa4b2" />
            </marker>
            <marker id="arrowBright" markerWidth="10" markerHeight="10" refX="7" refY="5" orient="auto">
                <path d="M0,0 L9,5 L0,10 Z" fill="#00e0ff" />
            </marker>
            <style>
                .label { font-family: Inter, system-ui, -apple-system, Segoe UI, Roboto; fill:#c8cfdb; }
            </style>
        </defs>
<g class="group" id="group-setter"><rect x="250.0" y="110.0" width="220.0" height="780.0" rx="18" ry="18" fill="#0e172a" stroke="#2a3450" stroke-width="1.5" stroke-dasharray="6 6"/><text class="label" x="360.0" y="94.0" text-anchor="middle" font-size="15" opacity="0.9">Előkeltetők</text></g>
<g class="group" id="group-hatcher"><rect x="570.0" y="110.0" width="220.0" height="780.0" rx="18" ry="18" fill="#0e172a" stroke="#2a3450" stroke-width="1.5" stroke-dasharray="6 6"/><text class="label" x="680.0" y="94.0" text-anchor="middle" font-size="15" opacity="0.9">Utókeltetők</text></g>
<g class="group" id="group-truck"><rect x="890.0" y="110.0" width="220.0" height="780.0" rx="18" ry="18" fill="#0e172a" stroke="#2a3450" stroke-width="1.5" stroke-dasharray="6 6"/><text class="label" x="1000.0" y="94.0" text-anchor="middle" font-size="15" opacity="0.9">Szállítás</text></g>
<g class="group" id="group-barn"><rect x="1170.0" y="410.0" width="220.0" height="180.0" rx="18" ry="18" fill="#0e172a" stroke="#2a3450" stroke-width="1.5" stroke-dasharray="6 6"/><text class="label" x="1280.0" y="394.0" text-anchor="middle" font-size="15" opacity="0.9">Cél istálló</text></g>
<path d="M180.0,500.0 C222.0,500.0 258.0,200.0 300.0,200.0" fill="none" stroke="#3b4556" stroke-width="3.83" opacity="0.75" marker-end="url(#arrow)"/>
<path d="M180.0,500.0 C222.0,500.0 258.0,800.0 300.0,800.0" fill="none" stroke="#3b4556" stroke-width="7.60" opacity="0.75" marker-end="url(#arrow)"/>
<path d="M180.0,500.0 C222.0,500.0 258.0,275.0 300.0,275.0" fill="none" stroke="#3b4556" stroke-width="3.46" opacity="0.75" marker-end="url(#arrow)"/>
<path d="M180.0,500.0 C222.0,500.0 258.0,425.0 300.0,425.0" fill="none" stroke="#3b4556" stroke-width="3.07" opacity="0.75" marker-end="url(#arrow)"/>
<path d="M180.0,500.0 C222.0,500.0 258.0,575.0 300.0,575.0" fill="none" stroke="#3b4556" stroke-width="2.80" opacity="0.75" marker-end="url(#arrow)"/>
<path d="M180.0,500.0 C222.0,500.0 258.0,650.0 300.0,650.0" fill="none" stroke="#3b4556" stroke-width="2.71" opacity="0.75" marker-end="url(#arrow)"/>
<path d="M180.0,500.0 C222.0,500.0 258.0,350.0 300.0,350.0" fill="none" stroke="#3b4556" stroke-width="3.21" opacity="0.75" marker-end="url(#arrow)"/>
<path d="M180.0,500.0 C222.0,500.0 258.0,725.0 300.0,725.0" fill="none" stroke="#3b4556" stroke-width="2.68" opacity="0.75" marker-end="url(#arrow)"/>
<path d="M180.0,500.0 C222.0,500.0 258.0,500.0 300.0,500.0" fill="none" stroke="#3b4556" stroke-width="2.81" opacity="0.75" marker-end="url(#arrow)"/>
<path d="M420.0,200.0 C490.0,200.0 550.0,200.0 620.0,200.0" fill="none" stroke="#4b566a" stroke-width="3.39" opacity="0.75" marker-end="url(#arrow)"/>
<path d="M420.0,800.0 C490.0,800.0 550.0,800.0 620.0,800.0" fill="none" stroke="#4b566a" stroke-width="5.14" opacity="0.75" marker-end="url(#arrow)"/>
<path d="M420.0,800.0 C490.0,800.0 550.0,575.0 620.0,575.0" fill="none" stroke="#4b566a" stroke-width="1.93" opacity="0.75" marker-end="url(#arrow)"/>
<path d="M420.0,800.0 C490.0,800.0 550.0,500.0 620.0,500.0" fill="none" stroke="#4b566a" stroke-width="1.85" opacity="0.75" marker-end="url(#arrow)"/>
<path d="M420.0,800.0 C490.0,800.0 550.0,650.0 620.0,650.0" fill="none" stroke="#4b566a" stroke-width="1.81" opacity="0.75" marker-end="url(#arrow)"/>
<path d="M420.0,800.0 C490.0,800.0 550.0,725.0 620.0,725.0" fill="none" stroke="#4b566a" stroke-width="1.75" opacity="0.75" marker-end="url(#arrow)"/>
<path d="M420.0,275.0 C490.0,275.0 550.0,800.0 620.0,800.0" fill="none" stroke="#4b566a" stroke-width="2.77" opacity="0.75" marker-end="url(#arrow)"/>
<path d="M420.0,275.0 C490.0,275.0 550.0,650.0 620.0,650.0" fill="none" stroke="#4b566a" stroke-width="1.74" opacity="0.75" marker-end="url(#arrow)"/>
<path d="M420.0,275.0 C490.0,275.0 550.0,575.0 620.0,575.0" fill="none" stroke="#4b566a" stroke-width="1.64" opacity="0.75" marker-end="url(#arrow)"/>
<path d="M420.0,275.0 C490.0,275.0 550.0,500.0 620.0,500.0" fill="none" stroke="#4b566a" stroke-width="1.71" opacity="0.75" marker-end="url(#arrow)"/>
<path d="M420.0,425.0 C490.0,425.0 550.0,500.0 620.0,500.0" fill="none" stroke="#4b566a" stroke-width="1.69" opacity="0.75" marker-end="url(#arrow)"/>
<path d="M420.0,425.0 C490.0,425.0 550.0,725.0 620.0,725.0" fill="none" stroke="#4b566a" stroke-width="1.85" opacity="0.75" marker-end="url(#arrow)"/>
<path d="M420.0,425.0 C490.0,425.0 550.0,800.0 620.0,800.0" fill="none" stroke="#4b566a" stroke-width="2.28" opacity="0.75" marker-end="url(#arrow)"/>
<path d="M420.0,425.0 C490.0,425.0 550.0,575.0 620.0,575.0" fill="none" stroke="#4b566a" stroke-width="1.68" opacity="0.75" marker-end="url(#arrow)"/>
<path d="M420.0,425.0 C490.0,425.0 550.0,650.0 620.0,650.0" fill="none" stroke="#4b566a" stroke-width="1.68" opacity="0.75" marker-end="url(#arrow)"/>
<path d="M420.0,800.0 C490.0,800.0 550.0,275.0 620.0,275.0" fill="none" stroke="#4b566a" stroke-width="1.77" opacity="0.75" marker-end="url(#arrow)"/>
<path d="M420.0,800.0 C490.0,800.0 550.0,200.0 620.0,200.0" fill="none" stroke="#4b566a" stroke-width="1.64" opacity="0.75" marker-end="url(#arrow)"/>
<path d="M420.0,800.0 C490.0,800.0 550.0,425.0 620.0,425.0" fill="none" stroke="#4b566a" stroke-width="1.68" opacity="0.75" marker-end="url(#arrow)"/>
<path d="M420.0,575.0 C490.0,575.0 550.0,350.0 620.0,350.0" fill="none" stroke="#4b566a" stroke-width="1.81" opacity="0.75" marker-end="url(#arrow)"/>
<path d="M420.0,575.0 C490.0,575.0 550.0,275.0 620.0,275.0" fill="none" stroke="#4b566a" stroke-width="1.70" opacity="0.75" marker-end="url(#arrow)"/>
<path d="M420.0,575.0 C490.0,575.0 550.0,800.0 620.0,800.0" fill="none" stroke="#4b566a" stroke-width="2.26" opacity="0.75" marker-end="url(#arrow)"/>
<path d="M420.0,800.0 C490.0,800.0 550.0,350.0 620.0,350.0" fill="none" stroke="#4b566a" stroke-width="1.70" opacity="0.75" marker-end="url(#arrow)"/>
<path d="M420.0,650.0 C490.0,650.0 550.0,800.0 620.0,800.0" fill="none" stroke="#4b566a" stroke-width="2.52" opacity="0.75" marker-end="url(#arrow)"/>
<path d="M420.0,350.0 C490.0,350.0 550.0,425.0 620.0,425.0" fill="none" stroke="#4b566a" stroke-width="1.80" opacity="0.75" marker-end="url(#arrow)"/>
<path d="M420.0,350.0 C490.0,350.0 550.0,800.0 620.0,800.0" fill="none" stroke="#4b566a" stroke-width="2.24" opacity="0.75" marker-end="url(#arrow)"/>
<path d="M420.0,350.0 C490.0,350.0 550.0,200.0 620.0,200.0" fill="none" stroke="#4b566a" stroke-width="1.70" opacity="0.75" marker-end="url(#arrow)"/>
<path d="M420.0,350.0 C490.0,350.0 550.0,275.0 620.0,275.0" fill="none" stroke="#4b566a" stroke-width="1.93" opacity="0.75" marker-end="url(#arrow)"/>
<path d="M420.0,725.0 C490.0,725.0 550.0,800.0 620.0,800.0" fill="none" stroke="#4b566a" stroke-width="2.47" opacity="0.75" marker-end="url(#arrow)"/>
<path d="M420.0,500.0 C490.0,500.0 550.0,800.0 620.0,800.0" fill="none" stroke="#4b566a" stroke-width="2.04" opacity="0.75" marker-end="url(#arrow)"/>
<path d="M420.0,500.0 C490.0,500.0 550.0,350.0 620.0,350.0" fill="none" stroke="#4b566a" stroke-width="1.83" opacity="0.75" marker-end="url(#arrow)"/>
<path d="M420.0,500.0 C490.0,500.0 550.0,425.0 620.0,425.0" fill="none" stroke="#4b566a" stroke-width="1.80" opacity="0.75" marker-end="url(#arrow)"/>
<path d="M420.0,500.0 C490.0,500.0 550.0,275.0 620.0,275.0" fill="none" stroke="#4b566a" stroke-width="1.71" opacity="0.75" marker-end="url(#arrow)"/>
<path d="M740.0,200.0 C810.0,200.0 870.0,200.0 940.0,200.0" fill="none" stroke="#55617a" stroke-width="3.39" opacity="0.85" marker-end="url(#arrow)"/>
<path d="M740.0,800.0 C810.0,800.0 870.0,800.0 940.0,800.0" fill="none" stroke="#55617a" stroke-width="4.76" opacity="0.85" marker-end="url(#arrow)"/>
<path d="M740.0,575.0 C810.0,575.0 870.0,800.0 940.0,800.0" fill="none" stroke="#55617a" stroke-width="2.05" opacity="0.85" marker-end="url(#arrow)"/>
<path d="M740.0,500.0 C810.0,500.0 870.0,800.0 940.0,800.0" fill="none" stroke="#55617a" stroke-width="1.96" opacity="0.85" marker-end="url(#arrow)"/>
<path d="M740.0,650.0 C810.0,650.0 870.0,800.0 940.0,800.0" fill="none" stroke="#55617a" stroke-width="1.93" opacity="0.85" marker-end="url(#arrow)"/>
<path d="M740.0,725.0 C810.0,725.0 870.0,800.0 940.0,800.0" fill="none" stroke="#55617a" stroke-width="2.00" opacity="0.85" marker-end="url(#arrow)"/>
<path d="M740.0,275.0 C810.0,275.0 870.0,800.0 940.0,800.0" fill="none" stroke="#55617a" stroke-width="1.65" opacity="0.85" marker-end="url(#arrow)"/>
<path d="M740.0,200.0 C810.0,200.0 870.0,800.0 940.0,800.0" fill="none" stroke="#55617a" stroke-width="1.64" opacity="0.85" marker-end="url(#arrow)"/>
<path d="M740.0,425.0 C810.0,425.0 870.0,800.0 940.0,800.0" fill="none" stroke="#55617a" stroke-width="1.68" opacity="0.85" marker-end="url(#arrow)"/>
<path d="M740.0,350.0 C810.0,350.0 870.0,300.0 940.0,300.0" fill="none" stroke="#55617a" stroke-width="1.92" opacity="0.85" marker-end="url(#arrow)"/>
<path d="M740.0,275.0 C810.0,275.0 870.0,300.0 940.0,300.0" fill="none" stroke="#55617a" stroke-width="1.70" opacity="0.85" marker-end="url(#arrow)"/>
<path d="M740.0,800.0 C810.0,800.0 870.0,300.0 940.0,300.0" fill="none" stroke="#55617a" stroke-width="2.72" opacity="0.85" marker-end="url(#arrow)"/>
<path d="M740.0,425.0 C810.0,425.0 870.0,400.0 940.0,400.0" fill="none" stroke="#55617a" stroke-width="1.80" opacity="0.85" marker-end="url(#arrow)"/>
<path d="M740.0,800.0 C810.0,800.0 870.0,400.0 940.0,400.0" fill="none" stroke="#55617a" stroke-width="2.49" opacity="0.85" marker-end="url(#arrow)"/>
<path d="M740.0,200.0 C810.0,200.0 870.0,400.0 940.0,400.0" fill="none" stroke="#55617a" stroke-width="1.70" opacity="0.85" marker-end="url(#arrow)"/>
<path d="M740.0,275.0 C810.0,275.0 870.0,400.0 940.0,400.0" fill="none" stroke="#55617a" stroke-width="1.93" opacity="0.85" marker-end="url(#arrow)"/>
<path d="M740.0,800.0 C810.0,800.0 870.0,500.0 940.0,500.0" fill="none" stroke="#55617a" stroke-width="3.13" opacity="0.85" marker-end="url(#arrow)"/>
<path d="M740.0,800.0 C810.0,800.0 870.0,600.0 940.0,600.0" fill="none" stroke="#55617a" stroke-width="2.94" opacity="0.85" marker-end="url(#arrow)"/>
<path d="M740.0,650.0 C810.0,650.0 870.0,600.0 940.0,600.0" fill="none" stroke="#55617a" stroke-width="1.70" opacity="0.85" marker-end="url(#arrow)"/>
<path d="M740.0,500.0 C810.0,500.0 870.0,600.0 940.0,600.0" fill="none" stroke="#55617a" stroke-width="1.69" opacity="0.85" marker-end="url(#arrow)"/>
<path d="M740.0,800.0 C810.0,800.0 870.0,700.0 940.0,700.0" fill="none" stroke="#55617a" stroke-width="2.48" opacity="0.85" marker-end="url(#arrow)"/>
<path d="M740.0,350.0 C810.0,350.0 870.0,700.0 940.0,700.0" fill="none" stroke="#55617a" stroke-width="1.83" opacity="0.85" marker-end="url(#arrow)"/>
<path d="M740.0,425.0 C810.0,425.0 870.0,700.0 940.0,700.0" fill="none" stroke="#55617a" stroke-width="1.80" opacity="0.85" marker-end="url(#arrow)"/>
<path d="M740.0,275.0 C810.0,275.0 870.0,700.0 940.0,700.0" fill="none" stroke="#55617a" stroke-width="1.82" opacity="0.85" marker-end="url(#arrow)"/>
<path d="M1060.0,200.0 C1116.0,200.0 1164.0,500.0 1220.0,500.0" fill="none" stroke="#5f6d85" stroke-width="3.39" opacity="0.85" marker-end="url(#arrow)"/>
<path d="M1060.0,800.0 C1116.0,800.0 1164.0,500.0 1220.0,500.0" fill="none" stroke="#5f6d85" stroke-width="2.30" opacity="0.85" marker-end="url(#arrow)"/>
<path d="M1060.0,800.0 C1116.0,800.0 1164.0,500.0 1220.0,500.0" fill="none" stroke="#5f6d85" stroke-width="2.69" opacity="0.85" marker-end="url(#arrow)"/>
<path d="M1060.0,800.0 C1116.0,800.0 1164.0,500.0 1220.0,500.0" fill="none" stroke="#5f6d85" stroke-width="1.86" opacity="0.85" marker-end="url(#arrow)"/>
<path d="M1060.0,800.0 C1116.0,800.0 1164.0,500.0 1220.0,500.0" fill="none" stroke="#5f6d85" stroke-width="2.78" opacity="0.85" marker-end="url(#arrow)"/>
<path d="M1060.0,800.0 C1116.0,800.0 1164.0,500.0 1220.0,500.0" fill="none" stroke="#5f6d85" stroke-width="1.96" opacity="0.85" marker-end="url(#arrow)"/>
<path d="M1060.0,800.0 C1116.0,800.0 1164.0,500.0 1220.0,500.0" fill="none" stroke="#5f6d85" stroke-width="1.86" opacity="0.85" marker-end="url(#arrow)"/>
<path d="M1060.0,300.0 C1116.0,300.0 1164.0,500.0 1220.0,500.0" fill="none" stroke="#5f6d85" stroke-width="3.13" opacity="0.85" marker-end="url(#arrow)"/>
<path d="M1060.0,800.0 C1116.0,800.0 1164.0,500.0 1220.0,500.0" fill="none" stroke="#5f6d85" stroke-width="1.86" opacity="0.85" marker-end="url(#arrow)"/>
<path d="M1060.0,400.0 C1116.0,400.0 1164.0,500.0 1220.0,500.0" fill="none" stroke="#5f6d85" stroke-width="3.13" opacity="0.85" marker-end="url(#arrow)"/>
<path d="M1060.0,800.0 C1116.0,800.0 1164.0,500.0 1220.0,500.0" fill="none" stroke="#5f6d85" stroke-width="1.86" opacity="0.85" marker-end="url(#arrow)"/>
<path d="M1060.0,500.0 C1116.0,500.0 1164.0,500.0 1220.0,500.0" fill="none" stroke="#5f6d85" stroke-width="3.13" opacity="0.85" marker-end="url(#arrow)"/>
<path d="M1060.0,800.0 C1116.0,800.0 1164.0,500.0 1220.0,500.0" fill="none" stroke="#5f6d85" stroke-width="1.86" opacity="0.85" marker-end="url(#arrow)"/>
<path d="M1060.0,600.0 C1116.0,600.0 1164.0,500.0 1220.0,500.0" fill="none" stroke="#5f6d85" stroke-width="3.13" opacity="0.85" marker-end="url(#arrow)"/>
<path d="M1060.0,800.0 C1116.0,800.0 1164.0,500.0 1220.0,500.0" fill="none" stroke="#5f6d85" stroke-width="1.86" opacity="0.85" marker-end="url(#arrow)"/>
<path d="M1060.0,700.0 C1116.0,700.0 1164.0,500.0 1220.0,500.0" fill="none" stroke="#5f6d85" stroke-width="3.13" opacity="0.85" marker-end="url(#arrow)"/>
<path d="M180.0,500.0 C222.0,500.0 258.0,500.0 300.0,500.0" fill="none" stroke="#00e0ff" stroke-width="5" opacity="0.95" filter="url(#softGlow)" marker-end="url(#arrowBright)"/>
<path d="M300.0,500.0 C342.0,500.0 378.0,500.0 420.0,500.0" fill="none" stroke="#00e0ff" stroke-width="5" opacity="0.95" filter="url(#softGlow)" marker-end="url(#arrowBright)"/>
<path d="M420.0,500.0 C490.0,500.0 550.0,800.0 620.0,800.0" fill="none" stroke="#00e0ff" stroke-width="5" opacity="0.95" filter="url(#softGlow)" marker-end="url(#arrowBright)"/>
<path d="M620.0,800.0 C662.0,800.0 698.0,800.0 740.0,800.0" fill="none" stroke="#00e0ff" stroke-width="5" opacity="0.95" filter="url(#softGlow)" marker-end="url(#arrowBright)"/>
<path d="M740.0,800.0 C810.0,800.0 870.0,700.0 940.0,700.0" fill="none" stroke="#00e0ff" stroke-width="5" opacity="0.95" filter="url(#softGlow)" marker-end="url(#arrowBright)"/>
<path d="M940.0,700.0 C982.0,700.0 1018.0,700.0 1060.0,700.0" fill="none" stroke="#00e0ff" stroke-width="5" opacity="0.95" filter="url(#softGlow)" marker-end="url(#arrowBright)"/>
<path d="M1060.0,700.0 C1116.0,700.0 1164.0,500.0 1220.0,500.0" fill="none" stroke="#00e0ff" stroke-width="5" opacity="0.95" filter="url(#softGlow)" marker-end="url(#arrowBright)"/>
<path d="M1220.0,500.0 C1276.0,500.0 1324.0,500.0 1380.0,500.0" fill="none" stroke="#00e0ff" stroke-width="5" opacity="0.95" filter="url(#softGlow)" marker-end="url(#arrowBright)"/>
<circle cx="1220.0" cy="500.0" r="34" fill="none" stroke="#00e0ff" stroke-width="2" opacity="0.6" filter="url(#softGlow)"/>
<g class="node" transform="translate(120.0,500.0)"><circle cx="0" cy="0" r="40" fill="url(#nodeGlow)" stroke="#8a93a6" stroke-width="1.2"/><circle cx="0" cy="0" r="28" fill="#0f1a2e" stroke="#2c3650" stroke-width="2"/><text class="label" x="0" y="56" text-anchor="middle" font-size="13">Tojás</text><text class="label" x="0" y="72" text-anchor="middle" font-size="12" opacity="0.75">282 653 db</text></g>
<g class="node" transform="translate(360.0,200.0)"><circle cx="0" cy="0" r="40" fill="url(#nodeGlow)" stroke="#8a93a6" stroke-width="1.2"/><circle cx="0" cy="0" r="28" fill="#0f1a2e" stroke="#2c3650" stroke-width="2"/><text class="label" x="0" y="56" text-anchor="middle" font-size="13">Előkeltető 01</text><text class="label" x="0" y="72" text-anchor="middle" font-size="12" opacity="0.75">35 480 db</text></g>
<g class="node" transform="translate(360.0,275.0)"><circle cx="0" cy="0" r="40" fill="url(#nodeGlow)" stroke="#8a93a6" stroke-width="1.2"/><circle cx="0" cy="0" r="28" fill="#0f1a2e" stroke="#2c3650" stroke-width="2"/><text class="label" x="0" y="56" text-anchor="middle" font-size="13">Előkeltető 31</text><text class="label" x="0" y="72" text-anchor="middle" font-size="12" opacity="0.75">29 556 db</text></g>
<g class="node" transform="translate(360.0,350.0)"><circle cx="0" cy="0" r="40" fill="url(#nodeGlow)" stroke="#8a93a6" stroke-width="1.2"/><circle cx="0" cy="0" r="28" fill="#0f1a2e" stroke="#2c3650" stroke-width="2"/><text class="label" x="0" y="56" text-anchor="middle" font-size="13">Előkeltető 06</text><text class="label" x="0" y="72" text-anchor="middle" font-size="12" opacity="0.75">25 650 db</text></g>
<g class="node" transform="translate(360.0,425.0)"><circle cx="0" cy="0" r="40" fill="url(#nodeGlow)" stroke="#8a93a6" stroke-width="1.2"/><circle cx="0" cy="0" r="28" fill="#0f1a2e" stroke="#2c3650" stroke-width="2"/><text class="label" x="0" y="56" text-anchor="middle" font-size="13">Előkeltető 36</text><text class="label" x="0" y="72" text-anchor="middle" font-size="12" opacity="0.75">23 379 db</text></g>
<g class="node" transform="translate(360.0,500.0)"><circle cx="0" cy="0" r="40" fill="url(#nodeGlow)" stroke="#8a93a6" stroke-width="1.2"/><circle cx="0" cy="0" r="28" fill="#0f1a2e" stroke="#2c3650" stroke-width="2"/><text class="label" x="0" y="56" text-anchor="middle" font-size="13">Előkeltető 15</text><text class="label" x="0" y="72" text-anchor="middle" font-size="12" opacity="0.75">19 260 db</text></g>
<g class="node" transform="translate(360.0,575.0)"><circle cx="0" cy="0" r="40" fill="url(#nodeGlow)" stroke="#8a93a6" stroke-width="1.2"/><circle cx="0" cy="0" r="28" fill="#0f1a2e" stroke="#2c3650" stroke-width="2"/><text class="label" x="0" y="56" text-anchor="middle" font-size="13">Előkeltető 17</text><text class="label" x="0" y="72" text-anchor="middle" font-size="12" opacity="0.75">19 066 db</text></g>
<g class="node" transform="translate(360.0,650.0)"><circle cx="0" cy="0" r="40" fill="url(#nodeGlow)" stroke="#8a93a6" stroke-width="1.2"/><circle cx="0" cy="0" r="28" fill="#0f1a2e" stroke="#2c3650" stroke-width="2"/><text class="label" x="0" y="56" text-anchor="middle" font-size="13">Előkeltető 53</text><text class="label" x="0" y="72" text-anchor="middle" font-size="12" opacity="0.75">17 608 db</text></g>
<g class="node" transform="translate(360.0,725.0)"><circle cx="0" cy="0" r="40" fill="url(#nodeGlow)" stroke="#8a93a6" stroke-width="1.2"/><circle cx="0" cy="0" r="28" fill="#0f1a2e" stroke="#2c3650" stroke-width="2"/><text class="label" x="0" y="56" text-anchor="middle" font-size="13">Előkeltető 54</text><text class="label" x="0" y="72" text-anchor="middle" font-size="12" opacity="0.75">17 156 db</text></g>
<g class="node" transform="translate(360.0,800.0)"><circle cx="0" cy="0" r="40" fill="url(#nodeGlow)" stroke="#8a93a6" stroke-width="1.2"/><circle cx="0" cy="0" r="28" fill="#0f1a2e" stroke="#2c3650" stroke-width="2"/><text class="label" x="0" y="56" text-anchor="middle" font-size="13">Egyéb előkeltetők (14)</text><text class="label" x="0" y="72" text-anchor="middle" font-size="12" opacity="0.75">95 498 db</text></g>
<g class="node" transform="translate(680.0,200.0)"><circle cx="0" cy="0" r="40" fill="url(#nodeGlow)" stroke="#8a93a6" stroke-width="1.2"/><circle cx="0" cy="0" r="28" fill="#0f1a2e" stroke="#2c3650" stroke-width="2"/><text class="label" x="0" y="56" text-anchor="middle" font-size="13">Utókeltető 01</text><text class="label" x="0" y="72" text-anchor="middle" font-size="12" opacity="0.75">30 732 db</text></g>
<g class="node" transform="translate(680.0,275.0)"><circle cx="0" cy="0" r="40" fill="url(#nodeGlow)" stroke="#8a93a6" stroke-width="1.2"/><circle cx="0" cy="0" r="28" fill="#0f1a2e" stroke="#2c3650" stroke-width="2"/><text class="label" x="0" y="56" text-anchor="middle" font-size="13">Utókeltető 04</text><text class="label" x="0" y="72" text-anchor="middle" font-size="12" opacity="0.75">11 269 db</text></g>
<g class="node" transform="translate(680.0,350.0)"><circle cx="0" cy="0" r="40" fill="url(#nodeGlow)" stroke="#8a93a6" stroke-width="1.2"/><circle cx="0" cy="0" r="28" fill="#0f1a2e" stroke="#2c3650" stroke-width="2"/><text class="label" x="0" y="56" text-anchor="middle" font-size="13">Utókeltető 18</text><text class="label" x="0" y="72" text-anchor="middle" font-size="12" opacity="0.75">8 649 db</text></g>
<g class="node" transform="translate(680.0,425.0)"><circle cx="0" cy="0" r="40" fill="url(#nodeGlow)" stroke="#8a93a6" stroke-width="1.2"/><circle cx="0" cy="0" r="28" fill="#0f1a2e" stroke="#2c3650" stroke-width="2"/><text class="label" x="0" y="56" text-anchor="middle" font-size="13">Utókeltető 08</text><text class="label" x="0" y="72" text-anchor="middle" font-size="12" opacity="0.75">7 668 db</text></g>
<g class="node" transform="translate(680.0,500.0)"><circle cx="0" cy="0" r="40" fill="url(#nodeGlow)" stroke="#8a93a6" stroke-width="1.2"/><circle cx="0" cy="0" r="28" fill="#0f1a2e" stroke="#2c3650" stroke-width="2"/><text class="label" x="0" y="56" text-anchor="middle" font-size="13">Utókeltető 29</text><text class="label" x="0" y="72" text-anchor="middle" font-size="12" opacity="0.75">7 227 db</text></g>
<g class="node" transform="translate(680.0,575.0)"><circle cx="0" cy="0" r="40" fill="url(#nodeGlow)" stroke="#8a93a6" stroke-width="1.2"/><circle cx="0" cy="0" r="28" fill="#0f1a2e" stroke="#2c3650" stroke-width="2"/><text class="label" x="0" y="56" text-anchor="middle" font-size="13">Utókeltető 33</text><text class="label" x="0" y="72" text-anchor="middle" font-size="12" opacity="0.75">7 096 db</text></g>
<g class="node" transform="translate(680.0,650.0)"><circle cx="0" cy="0" r="40" fill="url(#nodeGlow)" stroke="#8a93a6" stroke-width="1.2"/><circle cx="0" cy="0" r="28" fill="#0f1a2e" stroke="#2c3650" stroke-width="2"/><text class="label" x="0" y="56" text-anchor="middle" font-size="13">Utókeltető 35</text><text class="label" x="0" y="72" text-anchor="middle" font-size="12" opacity="0.75">6 834 db</text></g>
<g class="node" transform="translate(680.0,725.0)"><circle cx="0" cy="0" r="40" fill="url(#nodeGlow)" stroke="#8a93a6" stroke-width="1.2"/><circle cx="0" cy="0" r="28" fill="#0f1a2e" stroke="#2c3650" stroke-width="2"/><text class="label" x="0" y="56" text-anchor="middle" font-size="13">Utókeltető 36</text><text class="label" x="0" y="72" text-anchor="middle" font-size="12" opacity="0.75">6 291 db</text></g>
<g class="node" transform="translate(680.0,800.0)"><circle cx="0" cy="0" r="40" fill="url(#nodeGlow)" stroke="#8a93a6" stroke-width="1.2"/><circle cx="0" cy="0" r="28" fill="#0f1a2e" stroke="#2c3650" stroke-width="2"/><text class="label" x="0" y="56" text-anchor="middle" font-size="13">Egyéb utókeltetők (45)</text><text class="label" x="0" y="72" text-anchor="middle" font-size="12" opacity="0.75">142 107 db</text></g>
<g class="node" transform="translate(1000.0,200.0)"><circle cx="0" cy="0" r="40" fill="url(#nodeGlow)" stroke="#8a93a6" stroke-width="1.2"/><circle cx="0" cy="0" r="28" fill="#0f1a2e" stroke="#2c3650" stroke-width="2"/><text class="label" x="0" y="56" text-anchor="middle" font-size="13">Kamion 01</text><text class="label" x="0" y="72" text-anchor="middle" font-size="12" opacity="0.75">28 484 db</text></g>
<g class="node" transform="translate(1000.0,300.0)"><circle cx="0" cy="0" r="40" fill="url(#nodeGlow)" stroke="#8a93a6" stroke-width="1.2"/><circle cx="0" cy="0" r="28" fill="#0f1a2e" stroke="#2c3650" stroke-width="2"/><text class="label" x="0" y="56" text-anchor="middle" font-size="13">Kamion 01</text><text class="label" x="0" y="72" text-anchor="middle" font-size="12" opacity="0.75">24 416 db</text></g>
<g class="node" transform="translate(1000.0,400.0)"><circle cx="0" cy="0" r="40" fill="url(#nodeGlow)" stroke="#8a93a6" stroke-width="1.2"/><circle cx="0" cy="0" r="28" fill="#0f1a2e" stroke="#2c3650" stroke-width="2"/><text class="label" x="0" y="56" text-anchor="middle" font-size="13">Kamion 01</text><text class="label" x="0" y="72" text-anchor="middle" font-size="12" opacity="0.75">24 416 db</text></g>
<g class="node" transform="translate(1000.0,500.0)"><circle cx="0" cy="0" r="40" fill="url(#nodeGlow)" stroke="#8a93a6" stroke-width="1.2"/><circle cx="0" cy="0" r="28" fill="#0f1a2e" stroke="#2c3650" stroke-width="2"/><text class="label" x="0" y="56" text-anchor="middle" font-size="13">Kamion 02</text><text class="label" x="0" y="72" text-anchor="middle" font-size="12" opacity="0.75">24 416 db</text></g>
<g class="node" transform="translate(1000.0,600.0)"><circle cx="0" cy="0" r="40" fill="url(#nodeGlow)" stroke="#8a93a6" stroke-width="1.2"/><circle cx="0" cy="0" r="28" fill="#0f1a2e" stroke="#2c3650" stroke-width="2"/><text class="label" x="0" y="56" text-anchor="middle" font-size="13">Kamion 01</text><text class="label" x="0" y="72" text-anchor="middle" font-size="12" opacity="0.75">24 416 db</text></g>
<g class="node" transform="translate(1000.0,700.0)"><circle cx="0" cy="0" r="40" fill="url(#nodeGlow)" stroke="#8a93a6" stroke-width="1.2"/><circle cx="0" cy="0" r="28" fill="#0f1a2e" stroke="#2c3650" stroke-width="2"/><text class="label" x="0" y="56" text-anchor="middle" font-size="13">Kamion 01</text><text class="label" x="0" y="72" text-anchor="middle" font-size="12" opacity="0.75">24 416 db</text></g>
<g class="node" transform="translate(1000.0,800.0)"><circle cx="0" cy="0" r="40" fill="url(#nodeGlow)" stroke="#8a93a6" stroke-width="1.2"/><circle cx="0" cy="0" r="28" fill="#0f1a2e" stroke="#2c3650" stroke-width="2"/><text class="label" x="0" y="56" text-anchor="middle" font-size="13">Egyéb kamionok (10)</text><text class="label" x="0" y="72" text-anchor="middle" font-size="12" opacity="0.75">77 308 db</text></g>
<g class="node" transform="translate(1280.0,500.0)"><circle cx="0" cy="0" r="40" fill="url(#nodeGlow)" stroke="#8a93a6" stroke-width="1.2"/><circle cx="0" cy="0" r="28" fill="#0f1a2e" stroke="#2c3650" stroke-width="2"/><text class="label" x="0" y="56" text-anchor="middle" font-size="13">Kisvarsany-barn-01</text><text class="label" x="0" y="72" text-anchor="middle" font-size="12" opacity="0.75">28 484 db</text></g>
<text class="label" x="80" y="72" font-size="24" fill="#f2f5ff" opacity="0.95">Kisvarsany-barn-01 · 2025-12-12</text>
<g transform="translate(60,820)">
    <circle cx="0" cy="0" r="6" fill="#00e0ff"/>
    <text class="label" x="14" y="5" font-size="14">Kiemelt élő batch útvonala</text>
    <line x1="0" y1="30" x2="70" y2="30" stroke="#3b4556" stroke-width="3"/>
    <text class="label" x="82" y="35" font-size="14">Aggregált anyagáram</text>
    <rect x="-10" y="52" width="24" height="14" rx="3" ry="3" fill="#0e172a" stroke="#2a3450" stroke-width="1.5" stroke-dasharray="6 6"/>
    <text class="label" x="20" y="63" font-size="14">Csoport kerete</text>
</g>

<g transform="translate(1400.0,380.0)"><text class="label" x="0" y="0" font-size="15" opacity="0.85">Istálló állapotváltozásai</text><text class="label" x="0" y="24" font-size="13" opacity="0.75">2025-10-19 22:09 -4068 shipment-623</text><text class="label" x="0" y="44" font-size="13" opacity="0.75">2025-10-25 23:17 +4068 shipment-751 · shipment-751-truck-02</text><text class="label" x="0" y="64" font-size="13" opacity="0.75">2025-10-29 16:25 -24416 shipment-668</text><text class="label" x="0" y="84" font-size="13" opacity="0.75">2025-10-31 01:18 +24416 shipment-775 · shipment-775-truck-01</text><text class="label" x="0" y="104" font-size="13" opacity="0.75">2025-11-30 17:35 -4068 shipment-751</text><text class="label" x="0" y="124" font-size="13" opacity="0.75">2025-12-01 11:06 +4068 shipment-852 · shipment-852-truck-02</text><text class="label" x="0" y="144" font-size="13" opacity="0.75">2025-12-05 16:46 -24416 shipment-775</text><text class="label" x="0" y="164" font-size="13" opacity="0.75">2025-12-12 21:06 +24416 shipment-891 · shipment-891-truck-01</text></g>
</svg>